<svg width="1920" height="900" viewBox="0 0 1920 900" fill="none" xmlns="http://www.w3.org/2000/svg">
    <g id="pricing-page-bg (1) 1" clip-path="url(#clip0_15_1680)">
        <g id="Group">
            <g id="Group_3" opacity="0.5">

                <path id="Vector_6" opacity="0.22" d="M529.316 519.743L-133.499 73.2886L-137.272 -107.504L525.553 338.951L529.316 519.743Z" stroke="url(#paint4_linear_15_1680)" stroke-width="1.0241" />
                <g id="Group 48095894">
                    <animateTransform attributeName="transform" beigin="0s" dur="20s" type="translate" from="0 0" to="1800 1200" repeatCount="indefinite"></animateTransform>
                    <path id="Vector_7" d="M306.605 369.731L221.333 312.292L220.212 258.755L305.485 316.194L306.605 369.731Z" stroke="url(#paint5_linear_15_1680)" stroke-width="1.0241" />
                    <path id="Vector_8" d="M306.606 369.731L120.131 244.128L119.021 190.591L305.485 316.194L306.606 369.731Z" stroke="url(#paint6_linear_15_1680)" stroke-width="1.0241" />
                    <path id="Vector_9" d="M306.605 369.731L221.333 312.292L220.212 258.755L305.485 316.194L306.605 369.731Z" stroke="url(#paint7_linear_15_1680)" stroke-width="1.0241" />
                    <path id="Vector_10" d="M306.606 369.731L120.131 244.128L119.021 190.591L305.485 316.194L306.606 369.731Z" stroke="url(#paint8_linear_15_1680)" stroke-width="1.0241" />
                </g>
                <g id="Group 48095893">
                    <animateTransform attributeName="transform" beigin="0s" dur="25s" type="translate" from="0 0" to="1800 1200" repeatCount="indefinite"></animateTransform>
                    <path id="Vector_11" d="M191.209 252.797L108.354 196.987L107.755 168.192L190.611 224.003L191.209 252.797Z" stroke="url(#paint9_linear_15_1680)" stroke-width="1.0241" />
                    <path id="Vector_12" d="M191.209 252.797L18.9905 136.79L18.3918 107.996L190.611 224.002L191.209 252.797Z" stroke="url(#paint10_linear_15_1680)" stroke-width="1.0241" />
                </g>
                <g id="Group 48095892">
                    <animateTransform attributeName="transform" beigin="0s" dur="30s" type="translate" from="0 0" to="1800 1200" repeatCount="indefinite"></animateTransform>
                    <path id="Vector_13" d="M141.398 239.03L60.2891 184.394L60.453 192.351L141.562 246.977L141.398 239.03Z" fill="url(#paint11_linear_15_1680)" />
                    <path id="Vector_14" d="M141.398 239.03L-25.2539 126.778L-25.0901 134.735L141.562 246.977L141.398 239.03Z" fill="url(#paint12_linear_15_1680)" />
                </g>
                <path id="Vector_15" d="M52.6928 141.381L-0.980469 105.22L-0.816577 113.177L52.8566 149.328L52.6928 141.381Z" fill="url(#paint13_linear_15_1680)" />
                <g id="Group 48095897">
                    <animateTransform attributeName="transform" beigin="0s" dur="35s" type="translate" from="0 0" to="1800 1200" repeatCount="indefinite"></animateTransform>
                    <path id="Vector_16" d="M52.6912 141.381L-56.1914 68.0349L-56.0276 75.9922L52.855 149.328L52.6912 141.381Z" fill="url(#paint14_linear_15_1680)" />
                </g>
                <path id="Vector_17" d="M274.53 385.804L164.398 311.629L164.562 319.576L274.694 393.762L274.53 385.804Z" fill="url(#paint15_linear_15_1680)" />
                <g id="Group 48095898">
                    <animateTransform attributeName="transform" beigin="0s" dur="40s" type="translate" from="0 0" to="1800 1200" repeatCount="indefinite"></animateTransform>
                    <path id="Vector_18" d="M274.529 385.804L109.187 274.433L109.351 282.391L274.693 393.762L274.529 385.804Z" fill="url(#paint16_linear_15_1680)" />
                </g>
                <g id="Group 48095899">
                    <animateTransform attributeName="transform" beigin="0s" dur="45s" type="translate" from="0 0" to="1800 1200" repeatCount="indefinite"></animateTransform>
                    <path id="Vector_19" d="M163.059 120.212L556.498 385.219" stroke="url(#paint17_linear_15_1680)" stroke-width="1.0241" stroke-miterlimit="10" stroke-linecap="round" />
                </g>
                <g id="Group 48095900">
                    <animateTransform attributeName="transform" beigin="0s" dur="50s" type="translate" from="0 0" to="1800 1200" repeatCount="indefinite"></animateTransform>
                    <path id="Vector_20" d="M233.023 342.391L626.463 607.398" stroke="url(#paint18_linear_15_1680)" stroke-width="1.0241" stroke-miterlimit="10" stroke-linecap="round" />
                </g>
                <g id="Group 48095896">
                    <animateTransform attributeName="transform" beigin="0s" dur="55s" type="translate" from="0 0" to="1800 1200" repeatCount="indefinite"></animateTransform>
                    <path id="Vector_21" d="M222.783 492.766L-181.415 220.512L-185.178 39.7095L219.02 311.974L222.783 492.766Z" stroke="url(#paint19_linear_15_1680)" stroke-width="1.0241" />
                    <g id="Group 48095895">
                        <path id="Vector_22" d="M107.737 416.433L-2.39453 342.247L-2.23071 350.205L107.912 424.391L107.737 416.433Z" fill="url(#paint20_linear_15_1680)" />
                        <path id="Vector_23" d="M107.736 416.433L-57.6055 305.062L-57.4416 313.019L107.91 424.391L107.736 416.433Z" fill="url(#paint21_linear_15_1680)" />
                        <path id="Vector_24" d="M220.817 408.809L-27.318 241.679L-27.9985 209.105L220.137 376.235L220.817 408.809Z" stroke="url(#paint22_linear_15_1680)" stroke-width="1.0241" />
                        <path id="Vector_25" d="M-9.38281 309.875L-8.34852 308.339L-6.81236 309.373L-7.84665 310.91L-9.38281 309.875ZM0.878655 316.788L1.91301 315.252L0.376855 314.217L-0.657498 315.754L0.878655 316.788ZM9.60403 322.666L10.6384 321.13L9.10223 320.096L8.06788 321.632L9.60403 322.666ZM18.3294 328.545L19.3637 327.008L17.8276 325.974L16.7932 327.51L18.3294 328.545ZM27.0547 334.423L28.0891 332.887L26.5529 331.852L25.5186 333.389L27.0547 334.423ZM35.7801 340.301L36.8144 338.765L35.2783 337.731L34.2439 339.267L35.7801 340.301ZM44.5055 346.18L45.5398 344.644L44.0037 343.609L42.9693 345.145L44.5055 346.18ZM53.2308 352.058L54.2651 350.522L52.729 349.488L51.6946 351.024L53.2308 352.058ZM61.9561 357.936L62.9905 356.4L61.4543 355.366L60.42 356.902L61.9561 357.936ZM70.6815 363.815L71.7159 362.279L70.1797 361.244L69.1454 362.78L70.6815 363.815ZM79.4068 369.693L80.4412 368.157L78.905 367.123L77.8707 368.659L79.4068 369.693ZM88.1322 375.571L89.1666 374.035L87.6304 373.001L86.596 374.537L88.1322 375.571ZM96.8576 381.45L97.8919 379.914L96.3558 378.879L95.3214 380.415L96.8576 381.45ZM105.583 387.328L106.617 385.792L105.081 384.758L104.047 386.294L105.583 387.328ZM114.308 393.206L115.343 391.67L113.806 390.636L112.772 392.172L114.308 393.206ZM123.034 399.085L124.068 397.549L122.532 396.514L121.497 398.05L123.034 399.085ZM131.759 404.963L132.793 403.427L131.257 402.393L130.223 403.929L131.759 404.963ZM140.484 410.842L141.519 409.305L139.983 408.271L138.948 409.807L140.484 410.842ZM149.21 416.72L150.244 415.184L148.708 414.149L147.674 415.686L149.21 416.72ZM157.935 422.598L158.969 421.062L157.433 420.028L156.399 421.564L157.935 422.598ZM166.66 428.477L167.695 426.94L166.159 425.906L165.124 427.442L166.66 428.477Z" fill="url(#paint23_linear_15_1680)" />
                    </g>
                </g>
                <g id="star">
                    <path id="Vector_26" d="M441.961 523.633L-220.865 77.1794L-224.628 -103.613L438.187 342.841L441.961 523.633Z" stroke="url(#paint24_linear_15_1680)" stroke-width="1.0241" />
                    <path id="Vector_27" d="M190.77 178.914L191.804 177.378L193.34 178.412L192.306 179.949L190.77 178.914ZM201.031 185.827L202.065 184.291L200.529 183.256L199.495 184.793L201.031 185.827ZM209.756 191.705L210.791 190.169L209.255 189.135L208.22 190.671L209.756 191.705ZM218.482 197.584L219.516 196.048L217.98 195.013L216.946 196.549L218.482 197.584ZM227.207 203.462L228.241 201.926L226.705 200.892L225.671 202.428L227.207 203.462ZM235.932 209.34L236.967 207.804L235.431 206.77L234.396 208.306L235.932 209.34ZM244.658 215.219L245.692 213.683L244.156 212.648L243.122 214.184L244.658 215.219ZM253.383 221.097L254.417 219.561L252.881 218.527L251.847 220.063L253.383 221.097ZM262.108 226.975L263.143 225.439L261.607 224.405L260.572 225.941L262.108 226.975ZM270.834 232.854L271.868 231.318L270.332 230.283L269.298 231.819L270.834 232.854ZM279.559 238.732L280.594 237.196L279.057 236.162L278.023 237.698L279.559 238.732ZM288.285 244.61L289.319 243.074L287.783 242.04L286.748 243.576L288.285 244.61ZM297.01 250.489L298.044 248.953L296.508 247.918L295.474 249.454L297.01 250.489ZM305.735 256.367L306.77 254.831L305.233 253.797L304.199 255.333L305.735 256.367ZM314.461 262.246L315.495 260.709L313.959 259.675L312.924 261.211L314.461 262.246ZM323.186 268.124L324.22 266.588L322.684 265.553L321.65 267.09L323.186 268.124ZM331.911 274.002L332.946 272.466L331.409 271.432L330.375 272.968L331.911 274.002ZM340.637 279.881L341.671 278.344L340.135 277.31L339.1 278.846L340.637 279.881ZM349.362 285.759L350.396 284.223L348.86 283.188L347.826 284.725L349.362 285.759ZM358.087 291.637L359.122 290.101L357.586 289.067L356.551 290.603L358.087 291.637ZM366.813 297.516L367.847 295.979L366.311 294.945L365.277 296.481L366.813 297.516Z" fill="url(#paint25_linear_15_1680)" />
                </g>
            </g>
            <g id="Group_4" opacity="0.5">
                <path id="Vector_28" opacity="0.22" d="M1390.47 519.743L2053.28 73.2886L2057.05 -107.504L1394.23 338.951L1390.47 519.743Z" stroke="url(#paint26_linear_15_1680)" stroke-width="1.0241" />
                <g id="Group 48095910">
                    <animateTransform attributeName="transform" beigin="0s" dur="20s" type="translate" from="0 0" to="-1800 1200" repeatCount="indefinite"></animateTransform>
                    <path id="Vector_29" d="M1613.18 369.731L1698.45 312.292L1699.57 258.755L1614.3 316.194L1613.18 369.731Z" stroke="url(#paint27_linear_15_1680)" stroke-width="1.0241" />
                    <path id="Vector_30" d="M1613.18 369.731L1799.65 244.128L1800.76 190.591L1614.3 316.194L1613.18 369.731Z" stroke="url(#paint28_linear_15_1680)" stroke-width="1.0241" />
                    <path id="Vector_31" d="M1613.18 369.731L1698.45 312.292L1699.57 258.755L1614.3 316.194L1613.18 369.731Z" stroke="url(#paint29_linear_15_1680)" stroke-width="1.0241" />
                    <path id="Vector_32" d="M1613.18 369.731L1799.65 244.128L1800.76 190.591L1614.3 316.194L1613.18 369.731Z" stroke="url(#paint30_linear_15_1680)" stroke-width="1.0241" />
                </g>
                <g id="Group 48095909">
                    <animateTransform attributeName="transform" beigin="0s" dur="25s" type="translate" from="0 0" to="-1800 1200" repeatCount="indefinite"></animateTransform>
                    <path id="Vector_33" d="M1728.57 252.797L1811.43 196.987L1812.03 168.192L1729.17 224.003L1728.57 252.797Z" stroke="url(#paint31_linear_15_1680)" stroke-width="1.0241" />
                    <path id="Vector_34" d="M1728.57 252.797L1900.79 136.79L1901.39 107.996L1729.17 224.002L1728.57 252.797Z" stroke="url(#paint32_linear_15_1680)" stroke-width="1.0241" />
                </g>
                <g id="Group 48095903">
                    <animateTransform attributeName="transform" beigin="0s" dur="30s" type="translate" from="0 0" to="-1800 1200" repeatCount="indefinite"></animateTransform>
                    <path id="Vector_35" d="M1778.38 239.03L1859.49 184.394L1859.33 192.351L1778.22 246.977L1778.38 239.03Z" fill="url(#paint33_linear_15_1680)" />
                    <path id="Vector_36" d="M1778.38 239.03L1945.04 126.778L1944.87 134.735L1778.22 246.977L1778.38 239.03Z" fill="url(#paint34_linear_15_1680)" />
                </g>
                <g id="Group 48095911">
                    <animateTransform attributeName="transform" beigin="0s" dur="35s" type="translate" from="0 0" to="-1800 1200" repeatCount="indefinite"></animateTransform>
                    <path id="Vector_37" d="M1867.09 141.381L1920.76 105.22L1920.6 113.177L1866.92 149.328L1867.09 141.381Z" fill="url(#paint35_linear_15_1680)" />
                    <path id="Vector_38" d="M1867.09 141.381L1975.97 68.0349L1975.81 75.9922L1866.93 149.328L1867.09 141.381Z" fill="url(#paint36_linear_15_1680)" />
                </g>
                <g id="Group 48095905">
                    <animateTransform attributeName="transform" beigin="0s" dur="40s" type="translate" from="0 0" to="-1800 1200" repeatCount="indefinite"></animateTransform>
                    <path id="Vector_39" d="M1645.25 385.804L1755.38 311.629L1755.22 319.576L1645.09 393.762L1645.25 385.804Z" fill="url(#paint37_linear_15_1680)" />
                    <path id="Vector_40" d="M1645.25 385.804L1810.59 274.433L1810.43 282.391L1645.09 393.762L1645.25 385.804Z" fill="url(#paint38_linear_15_1680)" />
                </g>
                <g id="Group 48095906">
                    <animateTransform attributeName="transform" beigin="0s" dur="45s" type="translate" from="0 0" to="-1800 1200" repeatCount="indefinite"></animateTransform>
                    <path id="Vector_41" d="M1812.04 416.433L1922.18 342.247L1922.01 350.205L1811.87 424.391L1812.04 416.433Z" fill="url(#paint39_linear_15_1680)" />
                    <path id="Vector_42" d="M1812.05 416.433L1977.39 305.062L1977.22 313.019L1811.87 424.391L1812.05 416.433Z" fill="url(#paint40_linear_15_1680)" />
                </g>
                <g id="Group 48095908">
                    <animateTransform attributeName="transform" beigin="0s" dur="50s" type="translate" from="0 0" to="-1800 1200" repeatCount="indefinite"></animateTransform>
                    <path id="Vector_43" d="M1756.72 120.212L1363.28 385.219" stroke="url(#paint41_linear_15_1680)" stroke-width="1.0241" stroke-miterlimit="10" stroke-linecap="round" />
                </g>
                <g id="Group 48095907">
                    <animateTransform attributeName="transform" beigin="0s" dur="55s" type="translate" from="0 0" to="-1800 1200" repeatCount="indefinite"></animateTransform>
                    <path id="Vector_44" d="M1686.76 342.391L1293.32 607.398" stroke="url(#paint42_linear_15_1680)" stroke-width="1.0241" stroke-miterlimit="10" stroke-linecap="round" />
                </g>
                <g id="Group 48095902">
                    <animateTransform attributeName="transform" beigin="0s" dur="60s" type="translate" from="0 0" to="-1800 1200" repeatCount="indefinite"></animateTransform>
                    <path id="Vector_45" d="M1697 492.766L2101.2 220.512L2104.96 39.7095L1700.76 311.974L1697 492.766Z" stroke="url(#paint43_linear_15_1680)" stroke-width="1.0241" />
                    <path id="Vector_46" d="M1698.96 408.809L1947.1 241.679L1947.78 209.105L1699.64 376.235L1698.96 408.809Z" stroke="url(#paint44_linear_15_1680)" stroke-width="1.0241" />
                    <path id="Vector_47" d="M1929.16 309.875L1928.13 308.339L1926.59 309.373L1927.63 310.91L1929.16 309.875ZM1918.9 316.788L1917.87 315.252L1919.4 314.217L1920.44 315.754L1918.9 316.788ZM1910.18 322.666L1909.14 321.13L1910.68 320.096L1911.71 321.632L1910.18 322.666ZM1901.45 328.545L1900.42 327.008L1901.95 325.974L1902.99 327.51L1901.45 328.545ZM1892.73 334.423L1891.69 332.887L1893.23 331.852L1894.26 333.389L1892.73 334.423ZM1884 340.301L1882.97 338.765L1884.5 337.731L1885.54 339.267L1884 340.301ZM1875.28 346.18L1874.24 344.644L1875.78 343.609L1876.81 345.145L1875.28 346.18ZM1866.55 352.058L1865.52 350.522L1867.05 349.488L1868.09 351.024L1866.55 352.058ZM1857.83 357.936L1856.79 356.4L1858.33 355.366L1859.36 356.902L1857.83 357.936ZM1849.1 363.815L1848.07 362.279L1849.6 361.244L1850.64 362.78L1849.1 363.815ZM1840.37 369.693L1839.34 368.157L1840.88 367.123L1841.91 368.659L1840.37 369.693ZM1831.65 375.571L1830.61 374.035L1832.15 373.001L1833.19 374.537L1831.65 375.571ZM1822.92 381.45L1821.89 379.914L1823.43 378.879L1824.46 380.415L1822.92 381.45ZM1814.2 387.328L1813.16 385.792L1814.7 384.758L1815.73 386.294L1814.2 387.328ZM1805.47 393.206L1804.44 391.67L1805.97 390.636L1807.01 392.172L1805.47 393.206ZM1796.75 399.085L1795.71 397.549L1797.25 396.514L1798.28 398.05L1796.75 399.085ZM1788.02 404.963L1786.99 403.427L1788.52 402.393L1789.56 403.929L1788.02 404.963ZM1779.3 410.842L1778.26 409.305L1779.8 408.271L1780.83 409.807L1779.3 410.842ZM1770.57 416.72L1769.54 415.184L1771.07 414.149L1772.11 415.686L1770.57 416.72ZM1761.85 422.598L1760.81 421.062L1762.35 420.028L1763.38 421.564L1761.85 422.598ZM1753.12 428.477L1752.09 426.94L1753.62 425.906L1754.66 427.442L1753.12 428.477Z" fill="url(#paint45_linear_15_1680)" />
                </g>
                <g id="Group 48095901">

                    <path id="Vector_48" d="M1477.82 523.633L2140.65 77.1794L2144.41 -103.613L1481.59 342.841L1477.82 523.633Z" stroke="url(#paint46_linear_15_1680)" stroke-width="1.0241" />
                    <path id="Vector_49" d="M1729.01 178.914L1727.98 177.378L1726.44 178.412L1727.48 179.949L1729.01 178.914ZM1718.75 185.827L1717.72 184.291L1719.25 183.256L1720.29 184.793L1718.75 185.827ZM1710.02 191.705L1708.99 190.169L1710.53 189.135L1711.56 190.671L1710.02 191.705ZM1701.3 197.584L1700.27 196.048L1701.8 195.013L1702.84 196.549L1701.3 197.584ZM1692.57 203.462L1691.54 201.926L1693.08 200.892L1694.11 202.428L1692.57 203.462ZM1683.85 209.34L1682.81 207.804L1684.35 206.77L1685.38 208.306L1683.85 209.34ZM1675.12 215.219L1674.09 213.683L1675.63 212.648L1676.66 214.184L1675.12 215.219ZM1666.4 221.097L1665.36 219.561L1666.9 218.527L1667.93 220.063L1666.4 221.097ZM1657.67 226.975L1656.64 225.439L1658.17 224.405L1659.21 225.941L1657.67 226.975ZM1648.95 232.854L1647.91 231.318L1649.45 230.283L1650.48 231.819L1648.95 232.854ZM1640.22 238.732L1639.19 237.196L1640.72 236.162L1641.76 237.698L1640.22 238.732ZM1631.5 244.61L1630.46 243.074L1632 242.04L1633.03 243.576L1631.5 244.61ZM1622.77 250.489L1621.74 248.953L1623.27 247.918L1624.31 249.454L1622.77 250.489ZM1614.05 256.367L1613.01 254.831L1614.55 253.797L1615.58 255.333L1614.05 256.367ZM1605.32 262.246L1604.29 260.709L1605.82 259.675L1606.86 261.211L1605.32 262.246ZM1596.6 268.124L1595.56 266.588L1597.1 265.553L1598.13 267.09L1596.6 268.124ZM1587.87 274.002L1586.84 272.466L1588.37 271.432L1589.41 272.968L1587.87 274.002ZM1579.14 279.881L1578.11 278.344L1579.65 277.31L1580.68 278.846L1579.14 279.881ZM1570.42 285.759L1569.38 284.223L1570.92 283.188L1571.96 284.725L1570.42 285.759ZM1561.69 291.637L1560.66 290.101L1562.2 289.067L1563.23 290.603L1561.69 291.637ZM1552.97 297.516L1551.93 295.979L1553.47 294.945L1554.5 296.481L1552.97 297.516Z" fill="url(#paint47_linear_15_1680)" />
                </g>
            </g>
        </g>
    </g>
    <defs>
        <radialGradient id="paint0_radial_15_1680" cx="0" cy="0" r="1" gradientUnits="userSpaceOnUse" gradientTransform="translate(20 16) rotate(90) scale(1044)">
            <stop stop-color="#F91D63" />
            <stop offset="1" stop-color="#F91D63" stop-opacity="0" />
        </radialGradient>
        <radialGradient id="paint1_radial_15_1680" cx="0" cy="0" r="1" gradientUnits="userSpaceOnUse" gradientTransform="translate(1917 16) rotate(90) scale(911)">
            <stop stop-color="#3A0084" />
            <stop offset="1" stop-color="#3A0084" stop-opacity="0" />
        </radialGradient>
        <linearGradient id="paint2_linear_15_1680" x1="960" y1="489" x2="960" y2="900" gradientUnits="userSpaceOnUse">
            <stop stop-color="#0B0B0B" stop-opacity="0" />
            <stop offset="1" />
        </linearGradient>
        <radialGradient id="paint3_radial_15_1680" cx="0" cy="0" r="1" gradientUnits="userSpaceOnUse" gradientTransform="translate(960 -151) rotate(90) scale(1343)">
            <stop />
            <stop offset="1" stop-color="#1E0031" stop-opacity="0" />
        </radialGradient>
        <linearGradient id="paint4_linear_15_1680" x1="-107.707" y1="1.29642" x2="534.029" y2="433.501" gradientUnits="userSpaceOnUse">
            <stop stop-color="#6102FF" stop-opacity="0" />
            <stop offset="0.14" stop-color="#6C08FC" stop-opacity="0.04" />
            <stop offset="0.38" stop-color="#8B1BF7" stop-opacity="0.14" />
            <stop offset="0.69" stop-color="#BE38ED" stop-opacity="0.3" />
            <stop offset="1" stop-color="#FC5DE2" stop-opacity="0.5" />
        </linearGradient>
        <linearGradient id="paint5_linear_15_1680" x1="233.63" y1="293.906" x2="471.127" y2="453.859" gradientUnits="userSpaceOnUse">
            <stop stop-color="#6102FF" />
            <stop offset="0.12" stop-color="#6A07FD" />
            <stop offset="0.33" stop-color="#8316F8" />
            <stop offset="0.59" stop-color="#AD2EF0" />
            <stop offset="0.89" stop-color="#E54FE6" />
            <stop offset="1" stop-color="#FC5DE2" />
        </linearGradient>
        <linearGradient id="paint6_linear_15_1680" x1="126.433" y1="221.71" x2="309.067" y2="344.712" gradientUnits="userSpaceOnUse">
            <stop stop-color="#6102FF" stop-opacity="0" />
            <stop offset="0.09" stop-color="#6605FD" stop-opacity="0.04" />
            <stop offset="0.23" stop-color="#760EFA" stop-opacity="0.14" />
            <stop offset="0.41" stop-color="#8F1DF6" stop-opacity="0.3" />
            <stop offset="0.62" stop-color="#B332EF" stop-opacity="0.53" />
            <stop offset="0.86" stop-color="#DF4CE7" stop-opacity="0.82" />
            <stop offset="1" stop-color="#FC5DE2" />
        </linearGradient>
        <linearGradient id="paint7_linear_15_1680" x1="233.63" y1="293.906" x2="471.127" y2="453.859" gradientUnits="userSpaceOnUse">
            <stop stop-color="#6102FF" />
            <stop offset="0.12" stop-color="#6A07FD" />
            <stop offset="0.33" stop-color="#8316F8" />
            <stop offset="0.59" stop-color="#AD2EF0" />
            <stop offset="0.89" stop-color="#E54FE6" />
            <stop offset="1" stop-color="#FC5DE2" />
        </linearGradient>
        <linearGradient id="paint8_linear_15_1680" x1="126.433" y1="221.71" x2="309.067" y2="344.712" gradientUnits="userSpaceOnUse">
            <stop stop-color="#6102FF" stop-opacity="0" />
            <stop offset="0.09" stop-color="#6605FD" stop-opacity="0.04" />
            <stop offset="0.23" stop-color="#760EFA" stop-opacity="0.14" />
            <stop offset="0.41" stop-color="#8F1DF6" stop-opacity="0.3" />
            <stop offset="0.62" stop-color="#B332EF" stop-opacity="0.53" />
            <stop offset="0.86" stop-color="#DF4CE7" stop-opacity="0.82" />
            <stop offset="1" stop-color="#FC5DE2" />
        </linearGradient>
        <linearGradient id="paint9_linear_15_1680" x1="123.476" y1="192.714" x2="330.913" y2="332.421" gradientUnits="userSpaceOnUse">
            <stop stop-color="#138FA4" />
            <stop offset="1" stop-color="#10EAB1" />
        </linearGradient>
        <linearGradient id="paint10_linear_15_1680" x1="28.9697" y1="129.064" x2="189.323" y2="237.061" gradientUnits="userSpaceOnUse">
            <stop stop-color="#6102FF" stop-opacity="0" />
            <stop offset="0.08" stop-color="#5E0BFD" stop-opacity="0.04" />
            <stop offset="0.23" stop-color="#5924FB" stop-opacity="0.14" />
            <stop offset="0.41" stop-color="#504DF6" stop-opacity="0.3" />
            <stop offset="0.62" stop-color="#4486EF" stop-opacity="0.52" />
            <stop offset="0.85" stop-color="#34CEE7" stop-opacity="0.81" />
            <stop offset="1" stop-color="#2AFFE2" />
        </linearGradient>
        <linearGradient id="paint11_linear_15_1680" x1="78.4612" y1="200.305" x2="257.723" y2="321.036" gradientUnits="userSpaceOnUse">
            <stop stop-color="#6102FF" />
            <stop offset="0.12" stop-color="#6A07FD" />
            <stop offset="0.33" stop-color="#8316F8" />
            <stop offset="0.59" stop-color="#AD2EF0" />
            <stop offset="0.89" stop-color="#E54FE6" />
            <stop offset="1" stop-color="#FC5DE2" />
        </linearGradient>
        <linearGradient id="paint12_linear_15_1680" x1="-10.736" y1="140.231" x2="134.948" y2="238.348" gradientUnits="userSpaceOnUse">
            <stop stop-color="#6102FF" stop-opacity="0" />
            <stop offset="0.09" stop-color="#6605FD" stop-opacity="0.04" />
            <stop offset="0.23" stop-color="#760EFA" stop-opacity="0.14" />
            <stop offset="0.41" stop-color="#8F1DF6" stop-opacity="0.3" />
            <stop offset="0.62" stop-color="#B332EF" stop-opacity="0.53" />
            <stop offset="0.86" stop-color="#DF4CE7" stop-opacity="0.82" />
            <stop offset="1" stop-color="#FC5DE2" />
        </linearGradient>
        <linearGradient id="paint13_linear_15_1680" x1="10.7476" y1="116.805" x2="132.096" y2="198.532" gradientUnits="userSpaceOnUse">
            <stop stop-color="#6102FF" stop-opacity="0" />
            <stop offset="0.08" stop-color="#5E0BFD" stop-opacity="0.04" />
            <stop offset="0.23" stop-color="#5924FB" stop-opacity="0.14" />
            <stop offset="0.41" stop-color="#504DF6" stop-opacity="0.3" />
            <stop offset="0.62" stop-color="#4486EF" stop-opacity="0.52" />
            <stop offset="0.85" stop-color="#34CEE7" stop-opacity="0.81" />
            <stop offset="1" stop-color="#2AFFE2" />
        </linearGradient>
        <linearGradient id="paint14_linear_15_1680" x1="-47.1929" y1="77.7833" x2="49.1228" y2="142.651" gradientUnits="userSpaceOnUse">
            <stop stop-color="#6102FF" stop-opacity="0" />
            <stop offset="0.08" stop-color="#5E0BFD" stop-opacity="0.04" />
            <stop offset="0.23" stop-color="#5924FB" stop-opacity="0.14" />
            <stop offset="0.41" stop-color="#504DF6" stop-opacity="0.3" />
            <stop offset="0.62" stop-color="#4486EF" stop-opacity="0.52" />
            <stop offset="0.85" stop-color="#34CEE7" stop-opacity="0.81" />
            <stop offset="1" stop-color="#2AFFE2" />
        </linearGradient>
        <linearGradient id="paint15_linear_15_1680" x1="189.384" y1="332.104" x2="429.931" y2="494.111" gradientUnits="userSpaceOnUse">
            <stop stop-color="#6102FF" stop-opacity="0" />
            <stop offset="0.08" stop-color="#5E0BFD" stop-opacity="0.04" />
            <stop offset="0.23" stop-color="#5924FB" stop-opacity="0.14" />
            <stop offset="0.41" stop-color="#504DF6" stop-opacity="0.3" />
            <stop offset="0.62" stop-color="#4486EF" stop-opacity="0.52" />
            <stop offset="0.85" stop-color="#34CEE7" stop-opacity="0.81" />
            <stop offset="1" stop-color="#2AFFE2" />
        </linearGradient>
        <linearGradient id="paint16_linear_15_1680" x1="123.586" y1="287.791" x2="268.158" y2="385.159" gradientUnits="userSpaceOnUse">
            <stop stop-color="#6102FF" stop-opacity="0" />
            <stop offset="0.08" stop-color="#5E0BFD" stop-opacity="0.04" />
            <stop offset="0.23" stop-color="#5924FB" stop-opacity="0.14" />
            <stop offset="0.41" stop-color="#504DF6" stop-opacity="0.3" />
            <stop offset="0.62" stop-color="#4486EF" stop-opacity="0.52" />
            <stop offset="0.85" stop-color="#34CEE7" stop-opacity="0.81" />
            <stop offset="1" stop-color="#2AFFE2" />
        </linearGradient>
        <linearGradient id="paint17_linear_15_1680" x1="359.778" y1="385.731" x2="359.778" y2="119.7" gradientUnits="userSpaceOnUse">
            <stop stop-color="#6102FF" stop-opacity="0" />
            <stop offset="0.09" stop-color="#6605FD" stop-opacity="0.04" />
            <stop offset="0.23" stop-color="#760EFA" stop-opacity="0.14" />
            <stop offset="0.41" stop-color="#8F1DF6" stop-opacity="0.3" />
            <stop offset="0.62" stop-color="#B332EF" stop-opacity="0.53" />
            <stop offset="0.86" stop-color="#DF4CE7" stop-opacity="0.82" />
            <stop offset="1" stop-color="#FC5DE2" />
        </linearGradient>
        <linearGradient id="paint18_linear_15_1680" x1="429.743" y1="607.91" x2="429.743" y2="341.879" gradientUnits="userSpaceOnUse">
            <stop stop-color="#6102FF" stop-opacity="0" />
            <stop offset="0.08" stop-color="#5E0BFD" stop-opacity="0.04" />
            <stop offset="0.23" stop-color="#5924FB" stop-opacity="0.14" />
            <stop offset="0.41" stop-color="#504DF6" stop-opacity="0.3" />
            <stop offset="0.62" stop-color="#4486EF" stop-opacity="0.52" />
            <stop offset="0.85" stop-color="#34CEE7" stop-opacity="0.81" />
            <stop offset="1" stop-color="#2AFFE2" />
        </linearGradient>
        <linearGradient id="paint19_linear_15_1680" x1="-180.268" y1="131.914" x2="240.415" y2="415.242" gradientUnits="userSpaceOnUse">
            <stop stop-color="#6102FF" stop-opacity="0" />
            <stop offset="0.14" stop-color="#6C08FC" stop-opacity="0.04" />
            <stop offset="0.38" stop-color="#8B1BF7" stop-opacity="0.14" />
            <stop offset="0.69" stop-color="#BE38ED" stop-opacity="0.3" />
            <stop offset="1" stop-color="#FC5DE2" stop-opacity="0.5" />
        </linearGradient>
        <linearGradient id="paint20_linear_15_1680" x1="22.5999" y1="362.74" x2="263.155" y2="524.752" gradientUnits="userSpaceOnUse">
            <stop stop-color="#6102FF" stop-opacity="0" />
            <stop offset="0.08" stop-color="#5E0BFD" stop-opacity="0.04" />
            <stop offset="0.23" stop-color="#5924FB" stop-opacity="0.14" />
            <stop offset="0.41" stop-color="#504DF6" stop-opacity="0.3" />
            <stop offset="0.62" stop-color="#4486EF" stop-opacity="0.52" />
            <stop offset="0.85" stop-color="#34CEE7" stop-opacity="0.81" />
            <stop offset="1" stop-color="#2AFFE2" />
        </linearGradient>
        <linearGradient id="paint21_linear_15_1680" x1="-43.1977" y1="318.427" x2="101.373" y2="415.794" gradientUnits="userSpaceOnUse">
            <stop stop-color="#6102FF" stop-opacity="0" />
            <stop offset="0.08" stop-color="#5E0BFD" stop-opacity="0.04" />
            <stop offset="0.23" stop-color="#5924FB" stop-opacity="0.14" />
            <stop offset="0.41" stop-color="#504DF6" stop-opacity="0.3" />
            <stop offset="0.62" stop-color="#4486EF" stop-opacity="0.52" />
            <stop offset="0.85" stop-color="#34CEE7" stop-opacity="0.81" />
            <stop offset="1" stop-color="#2AFFE2" />
        </linearGradient>
        <linearGradient id="paint22_linear_15_1680" x1="-10.8655" y1="236.448" x2="215.921" y2="389.187" gradientUnits="userSpaceOnUse">
            <stop stop-color="#6102FF" stop-opacity="0" />
            <stop offset="0.09" stop-color="#6605FD" stop-opacity="0.04" />
            <stop offset="0.23" stop-color="#760EFA" stop-opacity="0.14" />
            <stop offset="0.41" stop-color="#8F1DF6" stop-opacity="0.3" />
            <stop offset="0.62" stop-color="#B332EF" stop-opacity="0.53" />
            <stop offset="0.86" stop-color="#DF4CE7" stop-opacity="0.82" />
            <stop offset="1" stop-color="#FC5DE2" />
        </linearGradient>
        <linearGradient id="paint23_linear_15_1680" x1="79.1918" y1="428.497" x2="79.1918" y2="308.349" gradientUnits="userSpaceOnUse">
            <stop stop-color="#6102FF" stop-opacity="0" />
            <stop offset="0.09" stop-color="#6605FD" stop-opacity="0.04" />
            <stop offset="0.23" stop-color="#760EFA" stop-opacity="0.14" />
            <stop offset="0.41" stop-color="#8F1DF6" stop-opacity="0.3" />
            <stop offset="0.62" stop-color="#B332EF" stop-opacity="0.53" />
            <stop offset="0.86" stop-color="#DF4CE7" stop-opacity="0.82" />
            <stop offset="1" stop-color="#FC5DE2" />
        </linearGradient>
        <linearGradient id="paint24_linear_15_1680" x1="-195.061" y1="5.19856" x2="446.675" y2="437.403" gradientUnits="userSpaceOnUse">
            <stop stop-color="#6102FF" stop-opacity="0" />
            <stop offset="0.14" stop-color="#6C08FC" stop-opacity="0.04" />
            <stop offset="0.38" stop-color="#8B1BF7" stop-opacity="0.14" />
            <stop offset="0.69" stop-color="#BE38ED" stop-opacity="0.3" />
            <stop offset="1" stop-color="#FC5DE2" stop-opacity="0.5" />
        </linearGradient>
        <linearGradient id="paint25_linear_15_1680" x1="279.334" y1="297.526" x2="279.334" y2="177.378" gradientUnits="userSpaceOnUse">
            <stop stop-color="#6102FF" stop-opacity="0" />
            <stop offset="0.09" stop-color="#6605FD" stop-opacity="0.04" />
            <stop offset="0.23" stop-color="#760EFA" stop-opacity="0.14" />
            <stop offset="0.41" stop-color="#8F1DF6" stop-opacity="0.3" />
            <stop offset="0.62" stop-color="#B332EF" stop-opacity="0.53" />
            <stop offset="0.86" stop-color="#DF4CE7" stop-opacity="0.82" />
            <stop offset="1" stop-color="#FC5DE2" />
        </linearGradient>
        <linearGradient id="paint26_linear_15_1680" x1="2027.49" y1="1.29644" x2="1385.75" y2="433.501" gradientUnits="userSpaceOnUse">
            <stop stop-color="#6102FF" stop-opacity="0" />
            <stop offset="0.14" stop-color="#6C08FC" stop-opacity="0.04" />
            <stop offset="0.38" stop-color="#8B1BF7" stop-opacity="0.14" />
            <stop offset="0.69" stop-color="#BE38ED" stop-opacity="0.3" />
            <stop offset="1" stop-color="#FC5DE2" stop-opacity="0.5" />
        </linearGradient>
        <linearGradient id="paint27_linear_15_1680" x1="1686.15" y1="293.906" x2="1448.65" y2="453.859" gradientUnits="userSpaceOnUse">
            <stop stop-color="#6102FF" />
            <stop offset="0.12" stop-color="#6A07FD" />
            <stop offset="0.33" stop-color="#8316F8" />
            <stop offset="0.59" stop-color="#AD2EF0" />
            <stop offset="0.89" stop-color="#E54FE6" />
            <stop offset="1" stop-color="#FC5DE2" />
        </linearGradient>
        <linearGradient id="paint28_linear_15_1680" x1="1793.35" y1="221.71" x2="1610.71" y2="344.712" gradientUnits="userSpaceOnUse">
            <stop stop-color="#6102FF" stop-opacity="0" />
            <stop offset="0.09" stop-color="#6605FD" stop-opacity="0.04" />
            <stop offset="0.23" stop-color="#760EFA" stop-opacity="0.14" />
            <stop offset="0.41" stop-color="#8F1DF6" stop-opacity="0.3" />
            <stop offset="0.62" stop-color="#B332EF" stop-opacity="0.53" />
            <stop offset="0.86" stop-color="#DF4CE7" stop-opacity="0.82" />
            <stop offset="1" stop-color="#FC5DE2" />
        </linearGradient>
        <linearGradient id="paint29_linear_15_1680" x1="1686.15" y1="293.906" x2="1448.65" y2="453.859" gradientUnits="userSpaceOnUse">
            <stop stop-color="#6102FF" />
            <stop offset="0.12" stop-color="#6A07FD" />
            <stop offset="0.33" stop-color="#8316F8" />
            <stop offset="0.59" stop-color="#AD2EF0" />
            <stop offset="0.89" stop-color="#E54FE6" />
            <stop offset="1" stop-color="#FC5DE2" />
        </linearGradient>
        <linearGradient id="paint30_linear_15_1680" x1="1793.35" y1="221.71" x2="1610.71" y2="344.712" gradientUnits="userSpaceOnUse">
            <stop stop-color="#6102FF" stop-opacity="0" />
            <stop offset="0.09" stop-color="#6605FD" stop-opacity="0.04" />
            <stop offset="0.23" stop-color="#760EFA" stop-opacity="0.14" />
            <stop offset="0.41" stop-color="#8F1DF6" stop-opacity="0.3" />
            <stop offset="0.62" stop-color="#B332EF" stop-opacity="0.53" />
            <stop offset="0.86" stop-color="#DF4CE7" stop-opacity="0.82" />
            <stop offset="1" stop-color="#FC5DE2" />
        </linearGradient>
        <linearGradient id="paint31_linear_15_1680" x1="1796.31" y1="192.714" x2="1588.87" y2="332.421" gradientUnits="userSpaceOnUse">
            <stop stop-color="#138FA4" />
            <stop offset="1" stop-color="#10EAB1" />
        </linearGradient>
        <linearGradient id="paint32_linear_15_1680" x1="1890.81" y1="129.064" x2="1730.46" y2="237.061" gradientUnits="userSpaceOnUse">
            <stop stop-color="#6102FF" stop-opacity="0" />
            <stop offset="0.08" stop-color="#5E0BFD" stop-opacity="0.04" />
            <stop offset="0.23" stop-color="#5924FB" stop-opacity="0.14" />
            <stop offset="0.41" stop-color="#504DF6" stop-opacity="0.3" />
            <stop offset="0.62" stop-color="#4486EF" stop-opacity="0.52" />
            <stop offset="0.85" stop-color="#34CEE7" stop-opacity="0.81" />
            <stop offset="1" stop-color="#2AFFE2" />
        </linearGradient>
        <linearGradient id="paint33_linear_15_1680" x1="1841.32" y1="200.305" x2="1662.06" y2="321.036" gradientUnits="userSpaceOnUse">
            <stop stop-color="#6102FF" />
            <stop offset="0.12" stop-color="#6A07FD" />
            <stop offset="0.33" stop-color="#8316F8" />
            <stop offset="0.59" stop-color="#AD2EF0" />
            <stop offset="0.89" stop-color="#E54FE6" />
            <stop offset="1" stop-color="#FC5DE2" />
        </linearGradient>
        <linearGradient id="paint34_linear_15_1680" x1="1930.52" y1="140.231" x2="1784.83" y2="238.348" gradientUnits="userSpaceOnUse">
            <stop stop-color="#6102FF" stop-opacity="0" />
            <stop offset="0.09" stop-color="#6605FD" stop-opacity="0.04" />
            <stop offset="0.23" stop-color="#760EFA" stop-opacity="0.14" />
            <stop offset="0.41" stop-color="#8F1DF6" stop-opacity="0.3" />
            <stop offset="0.62" stop-color="#B332EF" stop-opacity="0.53" />
            <stop offset="0.86" stop-color="#DF4CE7" stop-opacity="0.82" />
            <stop offset="1" stop-color="#FC5DE2" />
        </linearGradient>
        <linearGradient id="paint35_linear_15_1680" x1="1909.03" y1="116.805" x2="1787.69" y2="198.532" gradientUnits="userSpaceOnUse">
            <stop stop-color="#6102FF" stop-opacity="0" />
            <stop offset="0.08" stop-color="#5E0BFD" stop-opacity="0.04" />
            <stop offset="0.23" stop-color="#5924FB" stop-opacity="0.14" />
            <stop offset="0.41" stop-color="#504DF6" stop-opacity="0.3" />
            <stop offset="0.62" stop-color="#4486EF" stop-opacity="0.52" />
            <stop offset="0.85" stop-color="#34CEE7" stop-opacity="0.81" />
            <stop offset="1" stop-color="#2AFFE2" />
        </linearGradient>
        <linearGradient id="paint36_linear_15_1680" x1="1966.97" y1="77.7833" x2="1870.66" y2="142.651" gradientUnits="userSpaceOnUse">
            <stop stop-color="#6102FF" stop-opacity="0" />
            <stop offset="0.08" stop-color="#5E0BFD" stop-opacity="0.04" />
            <stop offset="0.23" stop-color="#5924FB" stop-opacity="0.14" />
            <stop offset="0.41" stop-color="#504DF6" stop-opacity="0.3" />
            <stop offset="0.62" stop-color="#4486EF" stop-opacity="0.52" />
            <stop offset="0.85" stop-color="#34CEE7" stop-opacity="0.81" />
            <stop offset="1" stop-color="#2AFFE2" />
        </linearGradient>
        <linearGradient id="paint37_linear_15_1680" x1="1730.4" y1="332.104" x2="1489.85" y2="494.111" gradientUnits="userSpaceOnUse">
            <stop stop-color="#6102FF" stop-opacity="0" />
            <stop offset="0.08" stop-color="#5E0BFD" stop-opacity="0.04" />
            <stop offset="0.23" stop-color="#5924FB" stop-opacity="0.14" />
            <stop offset="0.41" stop-color="#504DF6" stop-opacity="0.3" />
            <stop offset="0.62" stop-color="#4486EF" stop-opacity="0.52" />
            <stop offset="0.85" stop-color="#34CEE7" stop-opacity="0.81" />
            <stop offset="1" stop-color="#2AFFE2" />
        </linearGradient>
        <linearGradient id="paint38_linear_15_1680" x1="1796.19" y1="287.791" x2="1651.62" y2="385.159" gradientUnits="userSpaceOnUse">
            <stop stop-color="#6102FF" stop-opacity="0" />
            <stop offset="0.08" stop-color="#5E0BFD" stop-opacity="0.04" />
            <stop offset="0.23" stop-color="#5924FB" stop-opacity="0.14" />
            <stop offset="0.41" stop-color="#504DF6" stop-opacity="0.3" />
            <stop offset="0.62" stop-color="#4486EF" stop-opacity="0.52" />
            <stop offset="0.85" stop-color="#34CEE7" stop-opacity="0.81" />
            <stop offset="1" stop-color="#2AFFE2" />
        </linearGradient>
        <linearGradient id="paint39_linear_15_1680" x1="1897.18" y1="362.74" x2="1656.63" y2="524.752" gradientUnits="userSpaceOnUse">
            <stop stop-color="#6102FF" stop-opacity="0" />
            <stop offset="0.08" stop-color="#5E0BFD" stop-opacity="0.04" />
            <stop offset="0.23" stop-color="#5924FB" stop-opacity="0.14" />
            <stop offset="0.41" stop-color="#504DF6" stop-opacity="0.3" />
            <stop offset="0.62" stop-color="#4486EF" stop-opacity="0.52" />
            <stop offset="0.85" stop-color="#34CEE7" stop-opacity="0.81" />
            <stop offset="1" stop-color="#2AFFE2" />
        </linearGradient>
        <linearGradient id="paint40_linear_15_1680" x1="1962.98" y1="318.427" x2="1818.41" y2="415.794" gradientUnits="userSpaceOnUse">
            <stop stop-color="#6102FF" stop-opacity="0" />
            <stop offset="0.08" stop-color="#5E0BFD" stop-opacity="0.04" />
            <stop offset="0.23" stop-color="#5924FB" stop-opacity="0.14" />
            <stop offset="0.41" stop-color="#504DF6" stop-opacity="0.3" />
            <stop offset="0.62" stop-color="#4486EF" stop-opacity="0.52" />
            <stop offset="0.85" stop-color="#34CEE7" stop-opacity="0.81" />
            <stop offset="1" stop-color="#2AFFE2" />
        </linearGradient>
        <linearGradient id="paint41_linear_15_1680" x1="1560" y1="385.731" x2="1560" y2="119.7" gradientUnits="userSpaceOnUse">
            <stop stop-color="#6102FF" stop-opacity="0" />
            <stop offset="0.09" stop-color="#6605FD" stop-opacity="0.04" />
            <stop offset="0.23" stop-color="#760EFA" stop-opacity="0.14" />
            <stop offset="0.41" stop-color="#8F1DF6" stop-opacity="0.3" />
            <stop offset="0.62" stop-color="#B332EF" stop-opacity="0.53" />
            <stop offset="0.86" stop-color="#DF4CE7" stop-opacity="0.82" />
            <stop offset="1" stop-color="#FC5DE2" />
        </linearGradient>
        <linearGradient id="paint42_linear_15_1680" x1="1490.04" y1="607.91" x2="1490.04" y2="341.879" gradientUnits="userSpaceOnUse">
            <stop stop-color="#6102FF" stop-opacity="0" />
            <stop offset="0.08" stop-color="#5E0BFD" stop-opacity="0.04" />
            <stop offset="0.23" stop-color="#5924FB" stop-opacity="0.14" />
            <stop offset="0.41" stop-color="#504DF6" stop-opacity="0.3" />
            <stop offset="0.62" stop-color="#4486EF" stop-opacity="0.52" />
            <stop offset="0.85" stop-color="#34CEE7" stop-opacity="0.81" />
            <stop offset="1" stop-color="#2AFFE2" />
        </linearGradient>
        <linearGradient id="paint43_linear_15_1680" x1="2100.05" y1="131.914" x2="1679.37" y2="415.242" gradientUnits="userSpaceOnUse">
            <stop stop-color="#6102FF" stop-opacity="0" />
            <stop offset="0.14" stop-color="#6C08FC" stop-opacity="0.04" />
            <stop offset="0.38" stop-color="#8B1BF7" stop-opacity="0.14" />
            <stop offset="0.69" stop-color="#BE38ED" stop-opacity="0.3" />
            <stop offset="1" stop-color="#FC5DE2" stop-opacity="0.5" />
        </linearGradient>
        <linearGradient id="paint44_linear_15_1680" x1="1930.65" y1="236.448" x2="1703.86" y2="389.187" gradientUnits="userSpaceOnUse">
            <stop stop-color="#6102FF" stop-opacity="0" />
            <stop offset="0.09" stop-color="#6605FD" stop-opacity="0.04" />
            <stop offset="0.23" stop-color="#760EFA" stop-opacity="0.14" />
            <stop offset="0.41" stop-color="#8F1DF6" stop-opacity="0.3" />
            <stop offset="0.62" stop-color="#B332EF" stop-opacity="0.53" />
            <stop offset="0.86" stop-color="#DF4CE7" stop-opacity="0.82" />
            <stop offset="1" stop-color="#FC5DE2" />
        </linearGradient>
        <linearGradient id="paint45_linear_15_1680" x1="1840.59" y1="428.497" x2="1840.59" y2="308.349" gradientUnits="userSpaceOnUse">
            <stop stop-color="#6102FF" stop-opacity="0" />
            <stop offset="0.09" stop-color="#6605FD" stop-opacity="0.04" />
            <stop offset="0.23" stop-color="#760EFA" stop-opacity="0.14" />
            <stop offset="0.41" stop-color="#8F1DF6" stop-opacity="0.3" />
            <stop offset="0.62" stop-color="#B332EF" stop-opacity="0.53" />
            <stop offset="0.86" stop-color="#DF4CE7" stop-opacity="0.82" />
            <stop offset="1" stop-color="#FC5DE2" />
        </linearGradient>
        <linearGradient id="paint46_linear_15_1680" x1="2114.84" y1="5.19852" x2="1473.11" y2="437.403" gradientUnits="userSpaceOnUse">
            <stop stop-color="#6102FF" stop-opacity="0" />
            <stop offset="0.14" stop-color="#6C08FC" stop-opacity="0.04" />
            <stop offset="0.38" stop-color="#3A1BF7" stop-opacity="0.14" />
            <stop offset="0.69" stop-color="#3C38ED" stop-opacity="0.3" />
            <stop offset="1" stop-color="#735DFC" stop-opacity="0.5" />
        </linearGradient>
        <linearGradient id="paint47_linear_15_1680" x1="1640.45" y1="297.526" x2="1640.45" y2="177.378" gradientUnits="userSpaceOnUse">
            <stop stop-color="#6102FF" stop-opacity="0" />
            <stop offset="0.09" stop-color="#6605FD" stop-opacity="0.04" />
            <stop offset="0.23" stop-color="#760EFA" stop-opacity="0.14" />
            <stop offset="0.41" stop-color="#8F1DF6" stop-opacity="0.3" />
            <stop offset="0.62" stop-color="#B332EF" stop-opacity="0.53" />
            <stop offset="0.86" stop-color="#DF4CE7" stop-opacity="0.82" />
            <stop offset="1" stop-color="#FC5DE2" />
        </linearGradient>
        <clipPath id="clip0_15_1680">
            <rect width="1920" height="900" fill="white" />
        </clipPath>
    </defs>
</svg>