<svg width="1920" height="900" viewBox="0 0 1920 900" fill="none" xmlns="http://www.w3.org/2000/svg">
    <g clip-path="url(#clip0_6055_12943)">
        <mask id="mask0_6055_12943" style="mask-type:luminance" maskUnits="userSpaceOnUse" x="0" y="0" width="1920" height="900">
            <path d="M0 900L1920 900L1920 0L7.86805e-05 -0.000167852L0 900Z" fill="white"/>
        </mask>
        <g id="Group" mask="url(#mask0_6055_12943)">
            <g id="Group_3" opacity="0.5">
                <path opacity="0.22" d="M1390.69 380.257L2053.5 826.711L2057.27 1007.5L1394.45 561.049L1390.69 380.257Z" stroke="url(#paint0_linear_6055_12943)" stroke-width="1.0241"/>
                <path d="M1613.4 530.268L1698.67 587.707L1699.79 641.244L1614.52 583.805L1613.4 530.268Z" stroke="url(#paint1_linear_6055_12943)" stroke-width="1.0241"/>
                <path d="M1613.4 530.268L1799.87 655.871L1800.98 709.408L1614.52 583.805L1613.4 530.268Z" stroke="url(#paint2_linear_6055_12943)" stroke-width="1.0241"/>
                <path d="M1613.4 530.268L1698.67 587.707L1699.79 641.244L1614.52 583.805L1613.4 530.268Z" stroke="url(#paint3_linear_6055_12943)" stroke-width="1.0241"/>
                <path d="M1613.4 530.268L1799.87 655.871L1800.98 709.408L1614.52 583.805L1613.4 530.268Z" stroke="url(#paint4_linear_6055_12943)" stroke-width="1.0241"/>
                <path d="M1728.79 647.204L1811.65 703.014L1812.25 731.809L1729.39 675.998L1728.79 647.204Z" stroke="url(#paint5_linear_6055_12943)" stroke-width="1.0241"/>
                <path d="M1728.79 647.203L1901.01 763.21L1901.61 792.004L1729.39 675.998L1728.79 647.203Z" stroke="url(#paint6_linear_6055_12943)" stroke-width="1.0241"/>
                <path d="M1778.6 660.971L1859.71 715.607L1859.55 707.65L1778.44 653.024L1778.6 660.971Z" fill="url(#paint7_linear_6055_12943)"/>
                <path d="M1778.6 660.971L1945.25 773.223L1945.09 765.266L1778.44 653.024L1778.6 660.971Z" fill="url(#paint8_linear_6055_12943)"/>
                <path d="M1867.31 758.618L1920.98 794.779L1920.82 786.822L1867.14 750.671L1867.31 758.618Z" fill="url(#paint9_linear_6055_12943)"/>
                <path d="M1867.31 758.619L1976.19 831.965L1976.03 824.008L1867.15 750.672L1867.31 758.619Z" fill="url(#paint10_linear_6055_12943)"/>
                <path d="M1645.47 514.196L1755.6 588.371L1755.44 580.424L1645.31 506.238L1645.47 514.196Z" fill="url(#paint11_linear_6055_12943)"/>
                <path d="M1645.47 514.195L1810.81 625.566L1810.65 617.608L1645.31 506.237L1645.47 514.195Z" fill="url(#paint12_linear_6055_12943)"/>
                <path d="M1756.94 779.787L1363.5 514.78" stroke="url(#paint13_linear_6055_12943)" stroke-width="1.0241" stroke-miterlimit="10" stroke-linecap="round"/>
                <path d="M1686.98 557.609L1293.54 292.602" stroke="url(#paint14_linear_6055_12943)" stroke-width="1.0241" stroke-miterlimit="10" stroke-linecap="round"/>
                <path d="M1697.22 407.234L2101.42 679.489L2105.18 860.291L1700.98 588.026L1697.22 407.234Z" stroke="url(#paint15_linear_6055_12943)" stroke-width="1.0241"/>
                <path d="M1812.26 483.568L1922.39 557.754L1922.23 549.796L1812.09 475.61L1812.26 483.568Z" fill="url(#paint16_linear_6055_12943)"/>
                <path d="M1812.26 483.568L1977.61 594.939L1977.44 586.982L1812.09 475.61L1812.26 483.568Z" fill="url(#paint17_linear_6055_12943)"/>
                <path d="M1699.18 491.192L1947.32 658.322L1948 690.896L1699.86 523.766L1699.18 491.192Z" stroke="url(#paint18_linear_6055_12943)" stroke-width="1.0241"/>
                <path d="M1929.38 590.126L1928.35 591.662L1926.81 590.628L1927.85 589.091L1929.38 590.126ZM1919.12 583.213L1918.09 584.749L1919.62 585.784L1920.66 584.247L1919.12 583.213ZM1910.4 577.335L1909.36 578.871L1910.9 579.905L1911.93 578.369L1910.4 577.335ZM1901.67 571.456L1900.64 572.993L1902.17 574.027L1903.21 572.491L1901.67 571.456ZM1892.95 565.578L1891.91 567.114L1893.45 568.149L1894.48 566.612L1892.95 565.578ZM1884.22 559.7L1883.19 561.236L1884.72 562.27L1885.76 560.734L1884.22 559.7ZM1875.49 553.821L1874.46 555.357L1876 556.392L1877.03 554.856L1875.49 553.821ZM1866.77 547.943L1865.73 549.479L1867.27 550.513L1868.31 548.977L1866.77 547.943ZM1858.04 542.065L1857.01 543.601L1858.55 544.635L1859.58 543.099L1858.04 542.065ZM1849.32 536.186L1848.28 537.722L1849.82 538.757L1850.85 537.221L1849.32 536.186ZM1840.59 530.308L1839.56 531.844L1841.1 532.878L1842.13 531.342L1840.59 530.308ZM1831.87 524.43L1830.83 525.966L1832.37 527L1833.4 525.464L1831.87 524.43ZM1823.14 518.551L1822.11 520.087L1823.64 521.122L1824.68 519.586L1823.14 518.551ZM1814.42 512.673L1813.38 514.209L1814.92 515.243L1815.95 513.707L1814.42 512.673ZM1805.69 506.795L1804.66 508.331L1806.19 509.365L1807.23 507.829L1805.69 506.795ZM1796.97 500.916L1795.93 502.452L1797.47 503.487L1798.5 501.951L1796.97 500.916ZM1788.24 495.038L1787.21 496.574L1788.74 497.608L1789.78 496.072L1788.24 495.038ZM1779.52 489.159L1778.48 490.696L1780.02 491.73L1781.05 490.194L1779.52 489.159ZM1770.79 483.281L1769.76 484.817L1771.29 485.852L1772.33 484.315L1770.79 483.281ZM1762.07 477.403L1761.03 478.939L1762.57 479.973L1763.6 478.437L1762.07 477.403ZM1753.34 471.524L1752.31 473.061L1753.84 474.095L1754.88 472.559L1753.34 471.524Z" fill="url(#paint19_linear_6055_12943)"/>
                <path d="M1478.04 376.367L2140.87 822.821L2144.63 1003.61L1481.81 557.159L1478.04 376.367Z" stroke="url(#paint20_linear_6055_12943)" stroke-width="1.0241"/>
                <path d="M1729.23 721.087L1728.2 722.623L1726.66 721.589L1727.69 720.052L1729.23 721.087ZM1718.97 714.174L1717.94 715.71L1719.47 716.745L1720.51 715.208L1718.97 714.174ZM1710.24 708.296L1709.21 709.832L1710.75 710.866L1711.78 709.33L1710.24 708.296ZM1701.52 702.417L1700.48 703.953L1702.02 704.988L1703.05 703.452L1701.52 702.417ZM1692.79 696.539L1691.76 698.075L1693.3 699.109L1694.33 697.573L1692.79 696.539ZM1684.07 690.661L1683.03 692.197L1684.57 693.231L1685.6 691.695L1684.07 690.661ZM1675.34 684.782L1674.31 686.318L1675.84 687.353L1676.88 685.817L1675.34 684.782ZM1666.62 678.904L1665.58 680.44L1667.12 681.474L1668.15 679.938L1666.62 678.904ZM1657.89 673.026L1656.86 674.562L1658.39 675.596L1659.43 674.06L1657.89 673.026ZM1649.17 667.147L1648.13 668.683L1649.67 669.718L1650.7 668.182L1649.17 667.147ZM1640.44 661.269L1639.41 662.805L1640.94 663.839L1641.98 662.303L1640.44 661.269ZM1631.72 655.391L1630.68 656.927L1632.22 657.961L1633.25 656.425L1631.72 655.391ZM1622.99 649.512L1621.96 651.048L1623.49 652.083L1624.53 650.547L1622.99 649.512ZM1614.27 643.634L1613.23 645.17L1614.77 646.204L1615.8 644.668L1614.27 643.634ZM1605.54 637.755L1604.51 639.292L1606.04 640.326L1607.08 638.79L1605.54 637.755ZM1596.81 631.877L1595.78 633.413L1597.32 634.448L1598.35 632.911L1596.81 631.877ZM1588.09 625.999L1587.05 627.535L1588.59 628.569L1589.63 627.033L1588.09 625.999ZM1579.36 620.12L1578.33 621.657L1579.87 622.691L1580.9 621.155L1579.36 620.12ZM1570.64 614.242L1569.6 615.778L1571.14 616.813L1572.17 615.276L1570.64 614.242ZM1561.91 608.364L1560.88 609.9L1562.41 610.934L1563.45 609.398L1561.91 608.364ZM1553.19 602.485L1552.15 604.022L1553.69 605.056L1554.72 603.52L1553.19 602.485Z" fill="url(#paint21_linear_6055_12943)"/>
            </g>
            <g id="Group_4" opacity="0.5">
                <path opacity="0.22" d="M529.531 380.257L-133.279 826.711L-137.049 1007.5L525.771 561.049L529.531 380.257Z" stroke="url(#paint22_linear_6055_12943)" stroke-width="1.0241"/>
                <path d="M306.82 530.268L221.55 587.707L220.43 641.244L305.7 583.805L306.82 530.268Z" stroke="url(#paint23_linear_6055_12943)" stroke-width="1.0241"/>
                <path d="M306.82 530.268L120.35 655.871L119.24 709.408L305.7 583.805L306.82 530.268Z" stroke="url(#paint24_linear_6055_12943)" stroke-width="1.0241"/>
                <path d="M306.82 530.268L221.55 587.707L220.43 641.244L305.7 583.805L306.82 530.268Z" stroke="url(#paint25_linear_6055_12943)" stroke-width="1.0241"/>
                <path d="M306.82 530.268L120.35 655.871L119.24 709.408L305.7 583.805L306.82 530.268Z" stroke="url(#paint26_linear_6055_12943)" stroke-width="1.0241"/>
                <path d="M191.43 647.204L108.57 703.014L107.97 731.809L190.83 675.998L191.43 647.204Z" stroke="url(#paint27_linear_6055_12943)" stroke-width="1.0241"/>
                <path d="M191.43 647.203L19.2096 763.21L18.6096 792.004L190.83 675.998L191.43 647.203Z" stroke="url(#paint28_linear_6055_12943)" stroke-width="1.0241"/>
                <path d="M141.621 660.971L60.5112 715.607L60.6713 707.65L141.781 653.024L141.621 660.971Z" fill="url(#paint29_linear_6055_12943)"/>
                <path d="M141.621 660.971L-25.0388 773.223L-24.8688 765.266L141.781 653.024L141.621 660.971Z" fill="url(#paint30_linear_6055_12943)"/>
                <path d="M52.9082 758.618L-0.761841 794.779L-0.601806 786.822L53.0781 750.671L52.9082 758.618Z" fill="url(#paint31_linear_6055_12943)"/>
                <path d="M52.9065 758.619L-55.9735 831.965L-55.8136 824.008L53.0664 750.672L52.9065 758.619Z" fill="url(#paint32_linear_6055_12943)"/>
                <path d="M274.75 514.196L164.62 588.371L164.78 580.424L274.91 506.238L274.75 514.196Z" fill="url(#paint33_linear_6055_12943)"/>
                <path d="M274.75 514.195L109.41 625.566L109.57 617.608L274.91 506.237L274.75 514.195Z" fill="url(#paint34_linear_6055_12943)"/>
                <path d="M107.959 483.566L-2.18115 557.752L-2.01111 549.794L108.129 475.608L107.959 483.566Z" fill="url(#paint35_linear_6055_12943)"/>
                <path d="M107.949 483.566L-57.3911 594.937L-57.2211 586.98L108.129 475.609L107.949 483.566Z" fill="url(#paint36_linear_6055_12943)"/>
                <path d="M163.279 779.787L556.719 514.78" stroke="url(#paint37_linear_6055_12943)" stroke-width="1.0241" stroke-miterlimit="10" stroke-linecap="round"/>
                <path d="M233.24 557.609L626.68 292.602" stroke="url(#paint38_linear_6055_12943)" stroke-width="1.0241" stroke-miterlimit="10" stroke-linecap="round"/>
                <path d="M223 407.235L-181.2 679.488L-184.96 860.291L219.24 588.027L223 407.235Z" stroke="url(#paint39_linear_6055_12943)" stroke-width="1.0241"/>
                <path d="M221.039 491.192L-27.1009 658.322L-27.781 690.896L220.359 523.766L221.039 491.192Z" stroke="url(#paint40_linear_6055_12943)" stroke-width="1.0241"/>
                <path d="M-9.15991 590.126L-8.12988 591.662L-6.58984 590.628L-7.62988 589.091L-9.15991 590.126ZM1.1001 583.213L2.13013 584.749L0.600098 585.784L-0.439819 584.247L1.1001 583.213ZM9.82007 577.335L10.8601 578.871L9.32007 579.905L8.29016 578.369L9.82007 577.335ZM18.5502 571.456L19.5801 572.993L18.0502 574.027L17.0101 572.491L18.5502 571.456ZM27.2701 565.578L28.3102 567.114L26.7701 568.149L25.7401 566.612L27.2701 565.578ZM36.0001 559.7L37.0302 561.236L35.5001 562.27L34.4601 560.734L36.0001 559.7ZM44.7201 553.821L45.7601 555.357L44.2201 556.392L43.1901 554.856L44.7201 553.821ZM53.4501 547.943L54.4801 549.479L52.9501 550.513L51.9102 548.977L53.4501 547.943ZM62.1702 542.065L63.2101 543.601L61.6702 544.635L60.6401 543.099L62.1702 542.065ZM70.9002 536.186L71.9302 537.722L70.4002 538.757L69.3601 537.221L70.9002 536.186ZM79.6301 530.308L80.6602 531.844L79.1201 532.878L78.0901 531.342L79.6301 530.308ZM88.3501 524.43L89.3901 525.966L87.8501 527L86.8102 525.464L88.3501 524.43ZM97.0801 518.551L98.1101 520.087L96.5701 521.122L95.5402 519.586L97.0801 518.551ZM105.8 512.673L106.84 514.209L105.3 515.243L104.27 513.707L105.8 512.673ZM114.53 506.795L115.56 508.331L114.03 509.365L112.99 507.829L114.53 506.795ZM123.25 500.916L124.29 502.452L122.75 503.487L121.72 501.951L123.25 500.916ZM131.98 495.038L133.01 496.574L131.48 497.608L130.44 496.072L131.98 495.038ZM140.7 489.159L141.74 490.696L140.2 491.73L139.17 490.194L140.7 489.159ZM149.43 483.281L150.46 484.817L148.93 485.852L147.89 484.315L149.43 483.281ZM158.15 477.403L159.19 478.939L157.65 479.973L156.62 478.437L158.15 477.403ZM166.88 471.524L167.91 473.061L166.38 474.095L165.34 472.559L166.88 471.524Z" fill="url(#paint41_linear_6055_12943)"/>
                <path d="M442.18 376.367L-220.65 822.821L-224.41 1003.61L438.41 557.159L442.18 376.367Z" stroke="url(#paint42_linear_6055_12943)" stroke-width="1.0241"/>
                <path d="M190.99 721.087L192.02 722.623L193.56 721.589L192.52 720.052L190.99 721.087ZM201.25 714.174L202.28 715.71L200.75 716.745L199.71 715.208L201.25 714.174ZM209.98 708.296L211.01 709.832L209.47 710.866L208.44 709.33L209.98 708.296ZM218.7 702.417L219.73 703.953L218.2 704.988L217.16 703.452L218.7 702.417ZM227.43 696.539L228.46 698.075L226.92 699.109L225.89 697.573L227.43 696.539ZM236.15 690.661L237.19 692.197L235.65 693.231L234.62 691.695L236.15 690.661ZM244.88 684.782L245.91 686.318L244.37 687.353L243.34 685.817L244.88 684.782ZM253.6 678.904L254.64 680.44L253.1 681.474L252.07 679.938L253.6 678.904ZM262.33 673.026L263.36 674.562L261.83 675.596L260.79 674.06L262.33 673.026ZM271.05 667.147L272.09 668.683L270.55 669.718L269.52 668.182L271.05 667.147ZM279.78 661.269L280.81 662.805L279.28 663.839L278.24 662.303L279.78 661.269ZM288.5 655.391L289.54 656.927L288 657.961L286.97 656.425L288.5 655.391ZM297.23 649.512L298.26 651.048L296.73 652.083L295.69 650.547L297.23 649.512ZM305.95 643.634L306.99 645.17L305.45 646.204L304.42 644.668L305.95 643.634ZM314.68 637.755L315.71 639.292L314.18 640.326L313.14 638.79L314.68 637.755ZM323.4 631.877L324.44 633.413L322.9 634.448L321.87 632.911L323.4 631.877ZM332.13 625.999L333.16 627.535L331.63 628.569L330.59 627.033L332.13 625.999ZM340.86 620.12L341.89 621.657L340.35 622.691L339.32 621.155L340.86 620.12ZM349.58 614.242L350.62 615.778L349.08 616.813L348.04 615.276L349.58 614.242ZM358.31 608.364L359.34 609.9L357.8 610.934L356.77 609.398L358.31 608.364ZM367.03 602.485L368.07 604.022L366.53 605.056L365.5 603.52L367.03 602.485Z" fill="url(#paint43_linear_6055_12943)"/>
            </g>
        </g>
    </g>
    <defs>
        <linearGradient id="paint0_linear_6055_12943" x1="2027.71" y1="898.703" x2="1385.97" y2="466.499" gradientUnits="userSpaceOnUse">
            <stop stop-color="#6102FF" stop-opacity="0"/>
            <stop offset="0.14" stop-color="#6C08FC" stop-opacity="0.04"/>
            <stop offset="0.38" stop-color="#8B1BF7" stop-opacity="0.14"/>
            <stop offset="0.69" stop-color="#BE38ED" stop-opacity="0.3"/>
            <stop offset="1" stop-color="#FC5DE2" stop-opacity="0.5"/>
        </linearGradient>
        <linearGradient id="paint1_linear_6055_12943" x1="1686.37" y1="606.093" x2="1448.87" y2="446.14" gradientUnits="userSpaceOnUse">
            <stop stop-color="#6102FF"/>
            <stop offset="0.12" stop-color="#6A07FD"/>
            <stop offset="0.33" stop-color="#8316F8"/>
            <stop offset="0.59" stop-color="#AD2EF0"/>
            <stop offset="0.89" stop-color="#E54FE6"/>
            <stop offset="1" stop-color="#FC5DE2"/>
        </linearGradient>
        <linearGradient id="paint2_linear_6055_12943" x1="1793.57" y1="678.289" x2="1610.93" y2="555.287" gradientUnits="userSpaceOnUse">
            <stop stop-color="#6102FF" stop-opacity="0"/>
            <stop offset="0.09" stop-color="#6605FD" stop-opacity="0.04"/>
            <stop offset="0.23" stop-color="#760EFA" stop-opacity="0.14"/>
            <stop offset="0.41" stop-color="#8F1DF6" stop-opacity="0.3"/>
            <stop offset="0.62" stop-color="#B332EF" stop-opacity="0.53"/>
            <stop offset="0.86" stop-color="#DF4CE7" stop-opacity="0.82"/>
            <stop offset="1" stop-color="#FC5DE2"/>
        </linearGradient>
        <linearGradient id="paint3_linear_6055_12943" x1="1686.37" y1="606.093" x2="1448.87" y2="446.14" gradientUnits="userSpaceOnUse">
            <stop stop-color="#6102FF"/>
            <stop offset="0.12" stop-color="#6A07FD"/>
            <stop offset="0.33" stop-color="#8316F8"/>
            <stop offset="0.59" stop-color="#AD2EF0"/>
            <stop offset="0.89" stop-color="#E54FE6"/>
            <stop offset="1" stop-color="#FC5DE2"/>
        </linearGradient>
        <linearGradient id="paint4_linear_6055_12943" x1="1793.57" y1="678.289" x2="1610.93" y2="555.287" gradientUnits="userSpaceOnUse">
            <stop stop-color="#6102FF" stop-opacity="0"/>
            <stop offset="0.09" stop-color="#6605FD" stop-opacity="0.04"/>
            <stop offset="0.23" stop-color="#760EFA" stop-opacity="0.14"/>
            <stop offset="0.41" stop-color="#8F1DF6" stop-opacity="0.3"/>
            <stop offset="0.62" stop-color="#B332EF" stop-opacity="0.53"/>
            <stop offset="0.86" stop-color="#DF4CE7" stop-opacity="0.82"/>
            <stop offset="1" stop-color="#FC5DE2"/>
        </linearGradient>
        <linearGradient id="paint5_linear_6055_12943" x1="1796.53" y1="707.287" x2="1589.09" y2="567.58" gradientUnits="userSpaceOnUse">
            <stop stop-color="#138FA4"/>
            <stop offset="1" stop-color="#10EAB1"/>
        </linearGradient>
        <linearGradient id="paint6_linear_6055_12943" x1="1891.03" y1="770.936" x2="1730.68" y2="662.939" gradientUnits="userSpaceOnUse">
            <stop stop-color="#6102FF" stop-opacity="0"/>
            <stop offset="0.08" stop-color="#5E0BFD" stop-opacity="0.04"/>
            <stop offset="0.23" stop-color="#5924FB" stop-opacity="0.14"/>
            <stop offset="0.41" stop-color="#504DF6" stop-opacity="0.3"/>
            <stop offset="0.62" stop-color="#4486EF" stop-opacity="0.52"/>
            <stop offset="0.85" stop-color="#34CEE7" stop-opacity="0.81"/>
            <stop offset="1" stop-color="#2AFFE2"/>
        </linearGradient>
        <linearGradient id="paint7_linear_6055_12943" x1="1841.54" y1="699.696" x2="1662.28" y2="578.965" gradientUnits="userSpaceOnUse">
            <stop stop-color="#6102FF"/>
            <stop offset="0.12" stop-color="#6A07FD"/>
            <stop offset="0.33" stop-color="#8316F8"/>
            <stop offset="0.59" stop-color="#AD2EF0"/>
            <stop offset="0.89" stop-color="#E54FE6"/>
            <stop offset="1" stop-color="#FC5DE2"/>
        </linearGradient>
        <linearGradient id="paint8_linear_6055_12943" x1="1930.74" y1="759.77" x2="1785.05" y2="661.653" gradientUnits="userSpaceOnUse">
            <stop stop-color="#6102FF" stop-opacity="0"/>
            <stop offset="0.09" stop-color="#6605FD" stop-opacity="0.04"/>
            <stop offset="0.23" stop-color="#760EFA" stop-opacity="0.14"/>
            <stop offset="0.41" stop-color="#8F1DF6" stop-opacity="0.3"/>
            <stop offset="0.62" stop-color="#B332EF" stop-opacity="0.53"/>
            <stop offset="0.86" stop-color="#DF4CE7" stop-opacity="0.82"/>
            <stop offset="1" stop-color="#FC5DE2"/>
        </linearGradient>
        <linearGradient id="paint9_linear_6055_12943" x1="1909.25" y1="783.194" x2="1787.9" y2="701.467" gradientUnits="userSpaceOnUse">
            <stop stop-color="#6102FF" stop-opacity="0"/>
            <stop offset="0.08" stop-color="#5E0BFD" stop-opacity="0.04"/>
            <stop offset="0.23" stop-color="#5924FB" stop-opacity="0.14"/>
            <stop offset="0.41" stop-color="#504DF6" stop-opacity="0.3"/>
            <stop offset="0.62" stop-color="#4486EF" stop-opacity="0.52"/>
            <stop offset="0.85" stop-color="#34CEE7" stop-opacity="0.81"/>
            <stop offset="1" stop-color="#2AFFE2"/>
        </linearGradient>
        <linearGradient id="paint10_linear_6055_12943" x1="1967.19" y1="822.216" x2="1870.88" y2="757.349" gradientUnits="userSpaceOnUse">
            <stop stop-color="#6102FF" stop-opacity="0"/>
            <stop offset="0.08" stop-color="#5E0BFD" stop-opacity="0.04"/>
            <stop offset="0.23" stop-color="#5924FB" stop-opacity="0.14"/>
            <stop offset="0.41" stop-color="#504DF6" stop-opacity="0.3"/>
            <stop offset="0.62" stop-color="#4486EF" stop-opacity="0.52"/>
            <stop offset="0.85" stop-color="#34CEE7" stop-opacity="0.81"/>
            <stop offset="1" stop-color="#2AFFE2"/>
        </linearGradient>
        <linearGradient id="paint11_linear_6055_12943" x1="1730.62" y1="567.896" x2="1490.07" y2="405.889" gradientUnits="userSpaceOnUse">
            <stop stop-color="#6102FF" stop-opacity="0"/>
            <stop offset="0.08" stop-color="#5E0BFD" stop-opacity="0.04"/>
            <stop offset="0.23" stop-color="#5924FB" stop-opacity="0.14"/>
            <stop offset="0.41" stop-color="#504DF6" stop-opacity="0.3"/>
            <stop offset="0.62" stop-color="#4486EF" stop-opacity="0.52"/>
            <stop offset="0.85" stop-color="#34CEE7" stop-opacity="0.81"/>
            <stop offset="1" stop-color="#2AFFE2"/>
        </linearGradient>
        <linearGradient id="paint12_linear_6055_12943" x1="1796.41" y1="612.208" x2="1651.84" y2="514.84" gradientUnits="userSpaceOnUse">
            <stop stop-color="#6102FF" stop-opacity="0"/>
            <stop offset="0.08" stop-color="#5E0BFD" stop-opacity="0.04"/>
            <stop offset="0.23" stop-color="#5924FB" stop-opacity="0.14"/>
            <stop offset="0.41" stop-color="#504DF6" stop-opacity="0.3"/>
            <stop offset="0.62" stop-color="#4486EF" stop-opacity="0.52"/>
            <stop offset="0.85" stop-color="#34CEE7" stop-opacity="0.81"/>
            <stop offset="1" stop-color="#2AFFE2"/>
        </linearGradient>
        <linearGradient id="paint13_linear_6055_12943" x1="1560.22" y1="514.268" x2="1560.22" y2="780.299" gradientUnits="userSpaceOnUse">
            <stop stop-color="#6102FF" stop-opacity="0"/>
            <stop offset="0.09" stop-color="#6605FD" stop-opacity="0.04"/>
            <stop offset="0.23" stop-color="#760EFA" stop-opacity="0.14"/>
            <stop offset="0.41" stop-color="#8F1DF6" stop-opacity="0.3"/>
            <stop offset="0.62" stop-color="#B332EF" stop-opacity="0.53"/>
            <stop offset="0.86" stop-color="#DF4CE7" stop-opacity="0.82"/>
            <stop offset="1" stop-color="#FC5DE2"/>
        </linearGradient>
        <linearGradient id="paint14_linear_6055_12943" x1="1490.26" y1="292.09" x2="1490.26" y2="558.121" gradientUnits="userSpaceOnUse">
            <stop stop-color="#6102FF" stop-opacity="0"/>
            <stop offset="0.08" stop-color="#5E0BFD" stop-opacity="0.04"/>
            <stop offset="0.23" stop-color="#5924FB" stop-opacity="0.14"/>
            <stop offset="0.41" stop-color="#504DF6" stop-opacity="0.3"/>
            <stop offset="0.62" stop-color="#4486EF" stop-opacity="0.52"/>
            <stop offset="0.85" stop-color="#34CEE7" stop-opacity="0.81"/>
            <stop offset="1" stop-color="#2AFFE2"/>
        </linearGradient>
        <linearGradient id="paint15_linear_6055_12943" x1="2100.27" y1="768.087" x2="1679.59" y2="484.758" gradientUnits="userSpaceOnUse">
            <stop stop-color="#6102FF" stop-opacity="0"/>
            <stop offset="0.14" stop-color="#6C08FC" stop-opacity="0.04"/>
            <stop offset="0.38" stop-color="#8B1BF7" stop-opacity="0.14"/>
            <stop offset="0.69" stop-color="#BE38ED" stop-opacity="0.3"/>
            <stop offset="1" stop-color="#FC5DE2" stop-opacity="0.5"/>
        </linearGradient>
        <linearGradient id="paint16_linear_6055_12943" x1="1897.4" y1="537.261" x2="1656.85" y2="375.249" gradientUnits="userSpaceOnUse">
            <stop stop-color="#6102FF" stop-opacity="0"/>
            <stop offset="0.08" stop-color="#5E0BFD" stop-opacity="0.04"/>
            <stop offset="0.23" stop-color="#5924FB" stop-opacity="0.14"/>
            <stop offset="0.41" stop-color="#504DF6" stop-opacity="0.3"/>
            <stop offset="0.62" stop-color="#4486EF" stop-opacity="0.52"/>
            <stop offset="0.85" stop-color="#34CEE7" stop-opacity="0.81"/>
            <stop offset="1" stop-color="#2AFFE2"/>
        </linearGradient>
        <linearGradient id="paint17_linear_6055_12943" x1="1963.2" y1="581.574" x2="1818.63" y2="484.207" gradientUnits="userSpaceOnUse">
            <stop stop-color="#6102FF" stop-opacity="0"/>
            <stop offset="0.08" stop-color="#5E0BFD" stop-opacity="0.04"/>
            <stop offset="0.23" stop-color="#5924FB" stop-opacity="0.14"/>
            <stop offset="0.41" stop-color="#504DF6" stop-opacity="0.3"/>
            <stop offset="0.62" stop-color="#4486EF" stop-opacity="0.52"/>
            <stop offset="0.85" stop-color="#34CEE7" stop-opacity="0.81"/>
            <stop offset="1" stop-color="#2AFFE2"/>
        </linearGradient>
        <linearGradient id="paint18_linear_6055_12943" x1="1930.87" y1="663.553" x2="1704.08" y2="510.814" gradientUnits="userSpaceOnUse">
            <stop stop-color="#6102FF" stop-opacity="0"/>
            <stop offset="0.09" stop-color="#6605FD" stop-opacity="0.04"/>
            <stop offset="0.23" stop-color="#760EFA" stop-opacity="0.14"/>
            <stop offset="0.41" stop-color="#8F1DF6" stop-opacity="0.3"/>
            <stop offset="0.62" stop-color="#B332EF" stop-opacity="0.53"/>
            <stop offset="0.86" stop-color="#DF4CE7" stop-opacity="0.82"/>
            <stop offset="1" stop-color="#FC5DE2"/>
        </linearGradient>
        <linearGradient id="paint19_linear_6055_12943" x1="1840.81" y1="471.504" x2="1840.81" y2="591.652" gradientUnits="userSpaceOnUse">
            <stop stop-color="#6102FF" stop-opacity="0"/>
            <stop offset="0.09" stop-color="#6605FD" stop-opacity="0.04"/>
            <stop offset="0.23" stop-color="#760EFA" stop-opacity="0.14"/>
            <stop offset="0.41" stop-color="#8F1DF6" stop-opacity="0.3"/>
            <stop offset="0.62" stop-color="#B332EF" stop-opacity="0.53"/>
            <stop offset="0.86" stop-color="#DF4CE7" stop-opacity="0.82"/>
            <stop offset="1" stop-color="#FC5DE2"/>
        </linearGradient>
        <linearGradient id="paint20_linear_6055_12943" x1="2115.06" y1="894.802" x2="1473.33" y2="462.597" gradientUnits="userSpaceOnUse">
            <stop stop-color="#6102FF" stop-opacity="0"/>
            <stop offset="0.14" stop-color="#6C08FC" stop-opacity="0.04"/>
            <stop offset="0.38" stop-color="#8B1BF7" stop-opacity="0.14"/>
            <stop offset="0.69" stop-color="#BE38ED" stop-opacity="0.3"/>
            <stop offset="1" stop-color="#FC5DE2" stop-opacity="0.5"/>
        </linearGradient>
        <linearGradient id="paint21_linear_6055_12943" x1="1640.67" y1="602.475" x2="1640.67" y2="722.623" gradientUnits="userSpaceOnUse">
            <stop stop-color="#6102FF" stop-opacity="0"/>
            <stop offset="0.09" stop-color="#6605FD" stop-opacity="0.04"/>
            <stop offset="0.23" stop-color="#760EFA" stop-opacity="0.14"/>
            <stop offset="0.41" stop-color="#8F1DF6" stop-opacity="0.3"/>
            <stop offset="0.62" stop-color="#B332EF" stop-opacity="0.53"/>
            <stop offset="0.86" stop-color="#DF4CE7" stop-opacity="0.82"/>
            <stop offset="1" stop-color="#FC5DE2"/>
        </linearGradient>
        <linearGradient id="paint22_linear_6055_12943" x1="-107.489" y1="898.703" x2="534.251" y2="466.499" gradientUnits="userSpaceOnUse">
            <stop stop-color="#6102FF" stop-opacity="0"/>
            <stop offset="0.14" stop-color="#6C08FC" stop-opacity="0.04"/>
            <stop offset="0.38" stop-color="#8B1BF7" stop-opacity="0.14"/>
            <stop offset="0.69" stop-color="#BE38ED" stop-opacity="0.3"/>
            <stop offset="1" stop-color="#FC5DE2" stop-opacity="0.5"/>
        </linearGradient>
        <linearGradient id="paint23_linear_6055_12943" x1="233.85" y1="606.093" x2="471.35" y2="446.14" gradientUnits="userSpaceOnUse">
            <stop stop-color="#6102FF"/>
            <stop offset="0.12" stop-color="#6A07FD"/>
            <stop offset="0.33" stop-color="#8316F8"/>
            <stop offset="0.59" stop-color="#AD2EF0"/>
            <stop offset="0.89" stop-color="#E54FE6"/>
            <stop offset="1" stop-color="#FC5DE2"/>
        </linearGradient>
        <linearGradient id="paint24_linear_6055_12943" x1="126.65" y1="678.289" x2="309.29" y2="555.287" gradientUnits="userSpaceOnUse">
            <stop stop-color="#6102FF" stop-opacity="0"/>
            <stop offset="0.09" stop-color="#6605FD" stop-opacity="0.04"/>
            <stop offset="0.23" stop-color="#760EFA" stop-opacity="0.14"/>
            <stop offset="0.41" stop-color="#8F1DF6" stop-opacity="0.3"/>
            <stop offset="0.62" stop-color="#B332EF" stop-opacity="0.53"/>
            <stop offset="0.86" stop-color="#DF4CE7" stop-opacity="0.82"/>
            <stop offset="1" stop-color="#FC5DE2"/>
        </linearGradient>
        <linearGradient id="paint25_linear_6055_12943" x1="233.85" y1="606.093" x2="471.35" y2="446.14" gradientUnits="userSpaceOnUse">
            <stop stop-color="#6102FF"/>
            <stop offset="0.12" stop-color="#6A07FD"/>
            <stop offset="0.33" stop-color="#8316F8"/>
            <stop offset="0.59" stop-color="#AD2EF0"/>
            <stop offset="0.89" stop-color="#E54FE6"/>
            <stop offset="1" stop-color="#FC5DE2"/>
        </linearGradient>
        <linearGradient id="paint26_linear_6055_12943" x1="126.65" y1="678.289" x2="309.29" y2="555.287" gradientUnits="userSpaceOnUse">
            <stop stop-color="#6102FF" stop-opacity="0"/>
            <stop offset="0.09" stop-color="#6605FD" stop-opacity="0.04"/>
            <stop offset="0.23" stop-color="#760EFA" stop-opacity="0.14"/>
            <stop offset="0.41" stop-color="#8F1DF6" stop-opacity="0.3"/>
            <stop offset="0.62" stop-color="#B332EF" stop-opacity="0.53"/>
            <stop offset="0.86" stop-color="#DF4CE7" stop-opacity="0.82"/>
            <stop offset="1" stop-color="#FC5DE2"/>
        </linearGradient>
        <linearGradient id="paint27_linear_6055_12943" x1="123.69" y1="707.287" x2="331.13" y2="567.579" gradientUnits="userSpaceOnUse">
            <stop stop-color="#138FA4"/>
            <stop offset="1" stop-color="#10EAB1"/>
        </linearGradient>
        <linearGradient id="paint28_linear_6055_12943" x1="29.1896" y1="770.936" x2="189.54" y2="662.939" gradientUnits="userSpaceOnUse">
            <stop stop-color="#6102FF" stop-opacity="0"/>
            <stop offset="0.08" stop-color="#5E0BFD" stop-opacity="0.04"/>
            <stop offset="0.23" stop-color="#5924FB" stop-opacity="0.14"/>
            <stop offset="0.41" stop-color="#504DF6" stop-opacity="0.3"/>
            <stop offset="0.62" stop-color="#4486EF" stop-opacity="0.52"/>
            <stop offset="0.85" stop-color="#34CEE7" stop-opacity="0.81"/>
            <stop offset="1" stop-color="#2AFFE2"/>
        </linearGradient>
        <linearGradient id="paint29_linear_6055_12943" x1="78.6812" y1="699.696" x2="257.941" y2="578.965" gradientUnits="userSpaceOnUse">
            <stop stop-color="#6102FF"/>
            <stop offset="0.12" stop-color="#6A07FD"/>
            <stop offset="0.33" stop-color="#8316F8"/>
            <stop offset="0.59" stop-color="#AD2EF0"/>
            <stop offset="0.89" stop-color="#E54FE6"/>
            <stop offset="1" stop-color="#FC5DE2"/>
        </linearGradient>
        <linearGradient id="paint30_linear_6055_12943" x1="-10.5188" y1="759.77" x2="135.171" y2="661.653" gradientUnits="userSpaceOnUse">
            <stop stop-color="#6102FF" stop-opacity="0"/>
            <stop offset="0.09" stop-color="#6605FD" stop-opacity="0.04"/>
            <stop offset="0.23" stop-color="#760EFA" stop-opacity="0.14"/>
            <stop offset="0.41" stop-color="#8F1DF6" stop-opacity="0.3"/>
            <stop offset="0.62" stop-color="#B332EF" stop-opacity="0.53"/>
            <stop offset="0.86" stop-color="#DF4CE7" stop-opacity="0.82"/>
            <stop offset="1" stop-color="#FC5DE2"/>
        </linearGradient>
        <linearGradient id="paint31_linear_6055_12943" x1="10.9682" y1="783.194" x2="132.308" y2="701.467" gradientUnits="userSpaceOnUse">
            <stop stop-color="#6102FF" stop-opacity="0"/>
            <stop offset="0.08" stop-color="#5E0BFD" stop-opacity="0.04"/>
            <stop offset="0.23" stop-color="#5924FB" stop-opacity="0.14"/>
            <stop offset="0.41" stop-color="#504DF6" stop-opacity="0.3"/>
            <stop offset="0.62" stop-color="#4486EF" stop-opacity="0.52"/>
            <stop offset="0.85" stop-color="#34CEE7" stop-opacity="0.81"/>
            <stop offset="1" stop-color="#2AFFE2"/>
        </linearGradient>
        <linearGradient id="paint32_linear_6055_12943" x1="-46.9735" y1="822.216" x2="49.3365" y2="757.349" gradientUnits="userSpaceOnUse">
            <stop stop-color="#6102FF" stop-opacity="0"/>
            <stop offset="0.08" stop-color="#5E0BFD" stop-opacity="0.04"/>
            <stop offset="0.23" stop-color="#5924FB" stop-opacity="0.14"/>
            <stop offset="0.41" stop-color="#504DF6" stop-opacity="0.3"/>
            <stop offset="0.62" stop-color="#4486EF" stop-opacity="0.52"/>
            <stop offset="0.85" stop-color="#34CEE7" stop-opacity="0.81"/>
            <stop offset="1" stop-color="#2AFFE2"/>
        </linearGradient>
        <linearGradient id="paint33_linear_6055_12943" x1="189.6" y1="567.896" x2="430.15" y2="405.889" gradientUnits="userSpaceOnUse">
            <stop stop-color="#6102FF" stop-opacity="0"/>
            <stop offset="0.08" stop-color="#5E0BFD" stop-opacity="0.04"/>
            <stop offset="0.23" stop-color="#5924FB" stop-opacity="0.14"/>
            <stop offset="0.41" stop-color="#504DF6" stop-opacity="0.3"/>
            <stop offset="0.62" stop-color="#4486EF" stop-opacity="0.52"/>
            <stop offset="0.85" stop-color="#34CEE7" stop-opacity="0.81"/>
            <stop offset="1" stop-color="#2AFFE2"/>
        </linearGradient>
        <linearGradient id="paint34_linear_6055_12943" x1="123.81" y1="612.208" x2="268.38" y2="514.84" gradientUnits="userSpaceOnUse">
            <stop stop-color="#6102FF" stop-opacity="0"/>
            <stop offset="0.08" stop-color="#5E0BFD" stop-opacity="0.04"/>
            <stop offset="0.23" stop-color="#5924FB" stop-opacity="0.14"/>
            <stop offset="0.41" stop-color="#504DF6" stop-opacity="0.3"/>
            <stop offset="0.62" stop-color="#4486EF" stop-opacity="0.52"/>
            <stop offset="0.85" stop-color="#34CEE7" stop-opacity="0.81"/>
            <stop offset="1" stop-color="#2AFFE2"/>
        </linearGradient>
        <linearGradient id="paint35_linear_6055_12943" x1="22.8189" y1="537.259" x2="263.369" y2="375.247" gradientUnits="userSpaceOnUse">
            <stop stop-color="#6102FF" stop-opacity="0"/>
            <stop offset="0.08" stop-color="#5E0BFD" stop-opacity="0.04"/>
            <stop offset="0.23" stop-color="#5924FB" stop-opacity="0.14"/>
            <stop offset="0.41" stop-color="#504DF6" stop-opacity="0.3"/>
            <stop offset="0.62" stop-color="#4486EF" stop-opacity="0.52"/>
            <stop offset="0.85" stop-color="#34CEE7" stop-opacity="0.81"/>
            <stop offset="1" stop-color="#2AFFE2"/>
        </linearGradient>
        <linearGradient id="paint36_linear_6055_12943" x1="-42.9811" y1="581.572" x2="101.589" y2="484.205" gradientUnits="userSpaceOnUse">
            <stop stop-color="#6102FF" stop-opacity="0"/>
            <stop offset="0.08" stop-color="#5E0BFD" stop-opacity="0.04"/>
            <stop offset="0.23" stop-color="#5924FB" stop-opacity="0.14"/>
            <stop offset="0.41" stop-color="#504DF6" stop-opacity="0.3"/>
            <stop offset="0.62" stop-color="#4486EF" stop-opacity="0.52"/>
            <stop offset="0.85" stop-color="#34CEE7" stop-opacity="0.81"/>
            <stop offset="1" stop-color="#2AFFE2"/>
        </linearGradient>
        <linearGradient id="paint37_linear_6055_12943" x1="359.999" y1="514.268" x2="359.999" y2="780.299" gradientUnits="userSpaceOnUse">
            <stop stop-color="#6102FF" stop-opacity="0"/>
            <stop offset="0.09" stop-color="#6605FD" stop-opacity="0.04"/>
            <stop offset="0.23" stop-color="#760EFA" stop-opacity="0.14"/>
            <stop offset="0.41" stop-color="#8F1DF6" stop-opacity="0.3"/>
            <stop offset="0.62" stop-color="#B332EF" stop-opacity="0.53"/>
            <stop offset="0.86" stop-color="#DF4CE7" stop-opacity="0.82"/>
            <stop offset="1" stop-color="#FC5DE2"/>
        </linearGradient>
        <linearGradient id="paint38_linear_6055_12943" x1="429.96" y1="292.09" x2="429.96" y2="558.121" gradientUnits="userSpaceOnUse">
            <stop stop-color="#6102FF" stop-opacity="0"/>
            <stop offset="0.08" stop-color="#5E0BFD" stop-opacity="0.04"/>
            <stop offset="0.23" stop-color="#5924FB" stop-opacity="0.14"/>
            <stop offset="0.41" stop-color="#504DF6" stop-opacity="0.3"/>
            <stop offset="0.62" stop-color="#4486EF" stop-opacity="0.52"/>
            <stop offset="0.85" stop-color="#34CEE7" stop-opacity="0.81"/>
            <stop offset="1" stop-color="#2AFFE2"/>
        </linearGradient>
        <linearGradient id="paint39_linear_6055_12943" x1="-180.05" y1="768.086" x2="240.63" y2="484.759" gradientUnits="userSpaceOnUse">
            <stop stop-color="#6102FF" stop-opacity="0"/>
            <stop offset="0.14" stop-color="#6C08FC" stop-opacity="0.04"/>
            <stop offset="0.38" stop-color="#8B1BF7" stop-opacity="0.14"/>
            <stop offset="0.69" stop-color="#BE38ED" stop-opacity="0.3"/>
            <stop offset="1" stop-color="#FC5DE2" stop-opacity="0.5"/>
        </linearGradient>
        <linearGradient id="paint40_linear_6055_12943" x1="-10.651" y1="663.553" x2="216.139" y2="510.814" gradientUnits="userSpaceOnUse">
            <stop stop-color="#6102FF" stop-opacity="0"/>
            <stop offset="0.09" stop-color="#6605FD" stop-opacity="0.04"/>
            <stop offset="0.23" stop-color="#760EFA" stop-opacity="0.14"/>
            <stop offset="0.41" stop-color="#8F1DF6" stop-opacity="0.3"/>
            <stop offset="0.62" stop-color="#B332EF" stop-opacity="0.53"/>
            <stop offset="0.86" stop-color="#DF4CE7" stop-opacity="0.82"/>
            <stop offset="1" stop-color="#FC5DE2"/>
        </linearGradient>
        <linearGradient id="paint41_linear_6055_12943" x1="79.4101" y1="471.504" x2="79.4101" y2="591.652" gradientUnits="userSpaceOnUse">
            <stop stop-color="#6102FF" stop-opacity="0"/>
            <stop offset="0.09" stop-color="#6605FD" stop-opacity="0.04"/>
            <stop offset="0.23" stop-color="#760EFA" stop-opacity="0.14"/>
            <stop offset="0.41" stop-color="#8F1DF6" stop-opacity="0.3"/>
            <stop offset="0.62" stop-color="#B332EF" stop-opacity="0.53"/>
            <stop offset="0.86" stop-color="#DF4CE7" stop-opacity="0.82"/>
            <stop offset="1" stop-color="#FC5DE2"/>
        </linearGradient>
        <linearGradient id="paint42_linear_6055_12943" x1="-194.84" y1="894.802" x2="446.89" y2="462.597" gradientUnits="userSpaceOnUse">
            <stop stop-color="#6102FF" stop-opacity="0"/>
            <stop offset="0.14" stop-color="#6C08FC" stop-opacity="0.04"/>
            <stop offset="0.38" stop-color="#3A1BF7" stop-opacity="0.14"/>
            <stop offset="0.69" stop-color="#3C38ED" stop-opacity="0.3"/>
            <stop offset="1" stop-color="#735DFC" stop-opacity="0.5"/>
        </linearGradient>
        <linearGradient id="paint43_linear_6055_12943" x1="279.55" y1="602.475" x2="279.55" y2="722.623" gradientUnits="userSpaceOnUse">
            <stop stop-color="#6102FF" stop-opacity="0"/>
            <stop offset="0.09" stop-color="#6605FD" stop-opacity="0.04"/>
            <stop offset="0.23" stop-color="#760EFA" stop-opacity="0.14"/>
            <stop offset="0.41" stop-color="#8F1DF6" stop-opacity="0.3"/>
            <stop offset="0.62" stop-color="#B332EF" stop-opacity="0.53"/>
            <stop offset="0.86" stop-color="#DF4CE7" stop-opacity="0.82"/>
            <stop offset="1" stop-color="#FC5DE2"/>
        </linearGradient>
        <clipPath id="clip0_6055_12943">
            <rect width="1920" height="900" fill="white" transform="translate(1920 900) rotate(-180)"/>
        </clipPath>
    </defs>
</svg>