<svg width="428.99999999999994" height="103.14000098297582" viewBox="0 0 370.0169491525424 88.95932051121432" class="looka-1j8o68f" fill="none" xmlns="http://www.w3.org/2000/svg"><defs id="SvgjsDefs2127"></defs><g id="SvgjsG2128" featurekey="UqkkrJ-0" transform="matrix(0.9886785225954289,0,0,0.9886785225954289,-4.943392612977144,-4.961188479405011)" fill="#111111"><g xmlns="http://www.w3.org/2000/svg"><g><path d="M21.903,68.117c-0.645,0-1.288-0.261-1.757-0.775L5.621,51.422c-0.828-0.908-0.828-2.297,0-3.204l14.525-15.921    c0.885-0.969,2.389-1.038,3.359-0.154c0.97,0.885,1.039,2.389,0.154,3.358L10.595,49.819L23.66,64.138    c0.885,0.969,0.816,2.473-0.154,3.358C23.049,67.911,22.475,68.117,21.903,68.117z"></path></g><g><path d="M78.099,68.117c-0.572,0-1.145-0.205-1.601-0.621c-0.97-0.885-1.039-2.388-0.154-3.358l13.064-14.318L76.344,35.501    c-0.885-0.97-0.816-2.474,0.154-3.358c0.97-0.884,2.473-0.815,3.358,0.154l14.525,15.921c0.828,0.908,0.828,2.297,0,3.204    l-14.525,15.92C79.387,67.856,78.744,68.117,78.099,68.117z"></path></g><path d="M63.773,5.613c-1.065-0.395-2.176-0.595-3.302-0.595c-3.997,0-7.606,2.544-8.979,6.33c0,0-20.241,55.865-20.256,55.922   c-0.007,0.022-1.399,25.182-1.399,25.182c-0.08,1.06,0.559,2.043,1.562,2.403c0.265,0.096,0.538,0.141,0.808,0.141   c0.753,0,1.481-0.357,1.936-0.993c0,0,15.017-20.109,15.02-20.117c0.028-0.061,20.289-55.932,20.289-55.932   C71.26,12.977,68.712,7.442,63.773,5.613z M45.582,69.868l-9.038-3.346l17.428-48.074l9.034,3.348L45.582,69.868z M55.964,12.955   c0.695-1.916,2.506-3.203,4.507-3.203c0.558,0,1.112,0.1,1.645,0.298c2.504,0.927,3.789,3.75,2.865,6.295l-0.361,0.997   l-9.032-3.347L55.964,12.955z M34.492,86.182l1.298-14.888l7.33,2.714L34.492,86.182z"></path></g></g><g id="SvgjsG2129" featurekey="0kuQ8p-0" transform="matrix(2.9850979487556675,0,0,2.9850979487556675,107.14923961338883,-6.432968206006027)" fill="#111111"><path d="M5.1 14.780000000000001 l2.08 0 l0 1.86 c0 2.24 -1.12 3.52 -3.28 3.52 s-3.28 -1.28 -3.28 -3.52 l0 -7.28 c0 -2.24 1.12 -3.52 3.28 -3.52 s3.28 1.28 3.28 3.52 l0 1.36 l-2.08 0 l0 -1.5 c0 -1 -0.44 -1.38 -1.14 -1.38 s-1.14 0.38 -1.14 1.38 l0 7.56 c0 1 0.44 1.36 1.14 1.36 s1.14 -0.36 1.14 -1.36 l0 -2 z M10.54 9.22 l0 7.56 c0 1 0.44 1.38 1.14 1.38 s1.14 -0.38 1.14 -1.38 l0 -7.56 c0 -1 -0.44 -1.38 -1.14 -1.38 s-1.14 0.38 -1.14 1.38 z M8.34 16.64 l0 -7.28 c0 -2.24 1.18 -3.52 3.34 -3.52 s3.34 1.28 3.34 3.52 l0 7.28 c0 2.24 -1.18 3.52 -3.34 3.52 s-3.34 -1.28 -3.34 -3.52 z M16.44 20 l0 -14 l3.48 0 c2.2 0 3.28 1.22 3.28 3.46 l0 7.08 c0 2.24 -1.08 3.46 -3.28 3.46 l-3.48 0 z M19.880000000000003 8 l-1.24 0 l0 10 l1.24 0 c0.7 0 1.12 -0.36 1.12 -1.36 l0 -7.28 c0 -1 -0.42 -1.36 -1.12 -1.36 z M26.8 8 l0 3.9 l3.02 0 l0 2 l-3.02 0 l0 4.1 l3.8 0 l0 2 l-6 0 l0 -14 l6 0 l0 2 l-3.8 0 z M35 6 l1.6 9.94 l0.04 0 l1.48 -9.94 l3.06 0 l0 14 l-2.08 0 l0 -10.04 l-0.04 0 l-1.48 10.04 l-2.08 0 l-1.6 -9.9 l-0.04 0 l0 9.9 l-1.92 0 l0 -14 l3.06 0 z M44.800000000000004 9.22 l0 7.56 c0 1 0.44 1.38 1.14 1.38 s1.14 -0.38 1.14 -1.38 l0 -7.56 c0 -1 -0.44 -1.38 -1.14 -1.38 s-1.14 0.38 -1.14 1.38 z M42.6 16.64 l0 -7.28 c0 -2.24 1.18 -3.52 3.34 -3.52 s3.34 1.28 3.34 3.52 l0 7.28 c0 2.24 -1.18 3.52 -3.34 3.52 s-3.34 -1.28 -3.34 -3.52 z M55.400000000000006 20 l-2.7 -10.14 l-0.04 0 l0 10.14 l-1.98 0 l0 -14 l2.76 0 l2.22 8.38 l0.04 0 l0 -8.38 l1.96 0 l0 14 l-2.26 0 z M58.96000000000001 9.36 c0 -2.24 1.1 -3.52 3.24 -3.52 s3.24 1.28 3.24 3.52 l0 0.44 l-2.08 0 l0 -0.58 c0 -1 -0.4 -1.38 -1.1 -1.38 s-1.1 0.38 -1.1 1.38 c0 1.02 0.44 1.78 1.88 3.04 c1.84 1.62 2.42 2.78 2.42 4.38 c0 2.24 -1.12 3.52 -3.28 3.52 s-3.28 -1.28 -3.28 -3.52 l0 -0.86 l2.08 0 l0 1 c0 1 0.44 1.36 1.14 1.36 s1.14 -0.36 1.14 -1.36 c0 -1.02 -0.44 -1.78 -1.88 -3.04 c-1.84 -1.62 -2.42 -2.78 -2.42 -4.38 z M66.08 8 l0 -2 l6.8 0 l0 2 l-2.3 0 l0 12 l-2.2 0 l0 -12 l-2.3 0 z M77.96000000000001 6 l2.24 14 l-2.22 0 l-0.38 -2.54 l-2.7 0 l-0.38 2.54 l-2.02 0 l2.24 -14 l3.22 0 z M76.22 8.48 l-1.04 7.08 l2.12 0 l-1.04 -7.08 l-0.04 0 z M88.06 20 l-2.24 0 c-0.12 -0.36 -0.2 -0.58 -0.2 -1.72 l0 -2.2 c0 -1.3 -0.44 -1.78 -1.44 -1.78 l-0.76 0 l0 5.7 l-2.2 0 l0 -14 l3.32 0 c2.28 0 3.26 1.06 3.26 3.22 l0 1.1 c0 1.44 -0.46 2.36 -1.44 2.82 l0 0.04 c1.1 0.46 1.46 1.5 1.46 2.96 l0 2.16 c0 0.68 0.02 1.18 0.24 1.7 z M84.48 8 l-1.06 0 l0 4.3 l0.86 0 c0.82 0 1.32 -0.36 1.32 -1.48 l0 -1.38 c0 -1 -0.34 -1.44 -1.12 -1.44 z"></path></g><g id="SvgjsG2130" featurekey="Nh6iBa-0" transform="matrix(1.0158120368221928,0,0,1.0158120368221928,108.1873506611684,58.06765900308855)" fill="#111111"><path d="M0.8 20 l0 -14 l2.2 0 l0 12 l3.62 0 l0 2 l-5.82 0 z M16.607937500000002 20 l0 -14 l2.2 0 l0 14 l-2.2 0 z M31.075875000000003 6 l1.66 11.42 l0.04 0 l1.66 -11.42 l2.02 0 l-2.16 14 l-3.28 0 l-2.16 -14 l2.22 0 z M48.7038125 8 l0 3.9 l3.02 0 l0 2 l-3.02 0 l0 4.1 l3.8 0 l0 2 l-6 0 l0 -14 l6 0 l0 2 l-3.8 0 z M75.01968749999999 20 l0 -14 l2.2 0 l0 12 l3.62 0 l0 2 l-5.82 0 z M90.827625 20 l0 -14 l2.2 0 l0 14 l-2.2 0 z M108.67556250000001 20 l-2.14 -5.58 l-0.68 1.28 l0 4.3 l-2.2 0 l0 -14 l2.2 0 l0 6.06 l0.04 0 l2.84 -6.06 l2.2 0 l-3.06 6.24 l3.06 7.76 l-2.26 0 z M123.1635 8 l0 3.9 l3.02 0 l0 2 l-3.02 0 l0 4.1 l3.8 0 l0 2 l-6 0 l0 -14 l6 0 l0 2 l-3.8 0 z M153.779375 14.780000000000001 l2.08 0 l0 1.86 c0 2.24 -1.12 3.52 -3.28 3.52 s-3.28 -1.28 -3.28 -3.52 l0 -7.28 c0 -2.24 1.12 -3.52 3.28 -3.52 s3.28 1.28 3.28 3.52 l0 1.36 l-2.08 0 l0 -1.5 c0 -1 -0.44 -1.38 -1.14 -1.38 s-1.14 0.38 -1.14 1.38 l0 7.56 c0 1 0.44 1.36 1.14 1.36 s1.14 -0.36 1.14 -1.36 l0 -2 z M168.2473125 9.22 l0 7.56 c0 1 0.44 1.38 1.14 1.38 s1.14 -0.38 1.14 -1.38 l0 -7.56 c0 -1 -0.44 -1.38 -1.14 -1.38 s-1.14 0.38 -1.14 1.38 z M166.0473125 16.64 l0 -7.28 c0 -2.24 1.18 -3.52 3.34 -3.52 s3.34 1.28 3.34 3.52 l0 7.28 c0 2.24 -1.18 3.52 -3.34 3.52 s-3.34 -1.28 -3.34 -3.52 z M183.17525 20 l0 -14 l3.48 0 c2.2 0 3.28 1.22 3.28 3.46 l0 7.08 c0 2.24 -1.08 3.46 -3.28 3.46 l-3.48 0 z M186.61525 8 l-1.24 0 l0 10 l1.24 0 c0.7 0 1.12 -0.36 1.12 -1.36 l0 -7.28 c0 -1 -0.42 -1.36 -1.12 -1.36 z M202.5631875 8 l0 3.9 l3.02 0 l0 2 l-3.02 0 l0 4.1 l3.8 0 l0 2 l-6 0 l0 -14 l6 0 l0 2 l-3.8 0 z"></path></g></svg>