<svg width="396" height="104.50275698123501" viewBox="0 0 349.99999999999994 92.36354783695012" class="looka-1j8o68f" fill="none" xmlns="http://www.w3.org/2000/svg"><defs id="SvgjsDefs1458"></defs><g id="SvgjsG1459" featurekey="X3o6dM-0" transform="matrix(4.656506138441003,0,0,4.656506138441003,-1.024428708186787,-30.267309883422907)" fill="#000"><path d="M6.22 12.74 q0 -0.46 0.25 -0.82 t0.63 -0.61 t0.84 -0.38 t0.88 -0.13 q0.28 0 0.54 0.06 t0.26 0.22 q0 0.1 -0.2 0.31 t-0.66 0.37 q-0.08 0.04 -0.26 0.14 t-0.36 0.23 t-0.32 0.29 t-0.14 0.3 q0 0.26 0.56 0.48 t1.36 0.22 q0.58 0 1.2 -0.14 t1.13 -0.39 t0.84 -0.63 t0.33 -0.86 q0 -0.44 -0.24 -0.74 t-0.62 -0.5 t-0.83 -0.32 t-0.87 -0.17 t-0.74 -0.06 t-0.42 -0.01 q-0.76 0 -1.63 0.15 t-1.72 0.46 t-1.63 0.77 t-1.37 1.07 t-0.94 1.36 t-0.35 1.65 q0 0.86 0.33 1.54 t0.87 1.2 t1.24 0.88 t1.45 0.59 t1.49 0.34 t1.38 0.11 q1.48 0 2.96 -0.33 t2.86 -0.99 q0.84 -0.4 1.16 -0.47 t0.32 0.03 q0 0.22 -0.24 0.42 t-0.7 0.5 q-1.64 1.08 -3.46 1.63 t-3.62 0.55 q-1.14 0 -2.47 -0.36 t-2.46 -1.09 t-1.88 -1.85 t-0.75 -2.64 q0 -1.7 0.84 -3.05 t2.15 -2.27 t2.91 -1.41 t3.14 -0.49 q0.84 0 1.81 0.18 t1.81 0.6 t1.4 1.12 t0.56 1.74 q0 0.84 -0.49 1.51 t-1.25 1.12 t-1.66 0.69 t-1.72 0.24 q-0.64 0 -1.27 -0.13 t-1.13 -0.42 t-0.8 -0.73 t-0.3 -1.08 z M17.02 19.48 q-0.74 0 -1.18 -0.38 t-0.61 -0.94 t-0.1 -1.22 t0.34 -1.21 t0.71 -0.91 t1.04 -0.32 q0.7 0.04 1.14 0.42 t0.64 0.94 t0.17 1.19 t-0.29 1.17 t-0.73 0.9 t-1.13 0.36 z M17.28 18.58 q0.22 0.02 0.36 -0.21 t0.2 -0.6 t0.05 -0.81 t-0.1 -0.82 t-0.25 -0.64 t-0.38 -0.26 q-0.2 0 -0.34 0.24 t-0.21 0.6 t-0.07 0.79 t0.08 0.8 t0.24 0.63 t0.42 0.28 z M23.06 11.38 q0 -0.48 0.26 -0.67 t0.56 -0.17 t0.53 0.22 t0.17 0.52 q-0.04 0.24 -0.12 0.91 t-0.17 1.55 t-0.15 1.82 t-0.06 1.74 t0.07 1.31 t0.27 0.51 q0.18 0 0.37 -0.34 t0.37 -0.79 t0.31 -0.88 t0.17 -0.63 q0.06 -0.2 0.19 -0.27 t0.26 -0.04 t0.22 0.15 t0.05 0.32 t-0.18 0.78 t-0.42 1.19 t-0.73 1.09 t-1.07 0.48 q-0.46 0 -0.71 -0.37 t-0.39 -0.97 q-0.16 0.38 -0.43 0.68 t-0.67 0.44 q-0.44 0.16 -0.76 0.04 q-0.58 -0.14 -0.92 -0.63 t-0.47 -1.14 t-0.03 -1.35 t0.41 -1.26 t0.83 -0.87 t1.26 -0.19 q0.4 0.06 0.7 0.42 q0.08 -1.14 0.18 -2.12 t0.1 -1.48 z M22.6 16.32 q-0.04 -0.28 -0.15 -0.56 t-0.33 -0.32 q-0.32 -0.06 -0.57 0.2 t-0.41 0.67 t-0.23 0.91 t-0.04 0.95 t0.17 0.76 t0.4 0.35 t0.49 -0.24 t0.4 -0.72 t0.25 -0.98 t0.02 -1.02 z M28.96 16.5 q-0.16 0.22 -0.4 0.36 t-0.52 0.23 t-0.57 0.13 t-0.51 0.06 q-0.06 0.42 -0.07 0.82 t0.04 0.72 t0.16 0.54 t0.31 0.28 q0.26 0.08 0.56 -0.09 t0.58 -0.47 t0.54 -0.7 t0.46 -0.77 t0.34 -0.68 t0.18 -0.45 q0.06 -0.18 0.19 -0.24 t0.25 -0.04 t0.2 0.13 t0.04 0.29 q-0.04 0.12 -0.14 0.47 t-0.29 0.79 t-0.46 0.91 t-0.65 0.86 t-0.87 0.65 t-1.09 0.26 q-0.72 0 -1.12 -0.5 t-0.54 -1.26 t-0.05 -1.63 t0.36 -1.63 t0.68 -1.26 t0.91 -0.5 q0.48 0 0.85 0.33 t0.57 0.77 t0.23 0.9 t-0.17 0.72 z M27.72 14.719999999999999 q-0.14 0.06 -0.3 0.51 t-0.3 1.09 q0.22 0 0.44 -0.05 t0.32 -0.21 q0.08 -0.12 0.1 -0.35 t-0.01 -0.47 t-0.1 -0.4 t-0.15 -0.12 z M47.120000000000005 17.94 q0.1 0.52 0.2 1.08 t0.1 1.02 q0 0.24 -0.08 0.5 t-0.21 0.47 t-0.3 0.35 t-0.37 0.14 q-0.26 0 -0.47 -0.33 t-0.35 -0.87 t-0.24 -1.21 t-0.16 -1.35 t-0.08 -1.29 t-0.02 -1.03 q0 -0.94 0.14 -2.03 t0.16 -2.05 q-0.4 0.52 -0.87 1.45 t-1.02 2 t-1.15 2.18 t-1.24 2.02 t-1.33 1.48 t-1.39 0.57 q-0.38 0 -0.7 -0.16 t-0.6 -0.4 t-0.52 -0.54 t-0.44 -0.58 q-0.72 -0.98 -1.34 -2.07 t-1.1 -2.15 q-0.06 0.82 -0.04 1.22 t0.02 0.7 q0 0.92 -0.13 1.84 t-0.59 1.74 q-0.32 0.58 -0.98 0.58 q-0.1 0 -0.25 -0.02 t-0.28 -0.08 t-0.23 -0.15 t-0.1 -0.23 q0.04 -0.38 0.13 -0.72 t0.19 -0.66 q0.2 -0.6 0.37 -1.29 t0.31 -1.41 t0.25 -1.45 t0.17 -1.41 q0 -0.14 0.01 -0.28 t0.09 -0.28 q-0.18 -0.58 -0.59 -1.22 t-0.84 -1.21 t-0.76 -1 t-0.35 -0.57 q-0.02 -0.08 0.05 -0.09 t0.16 0 t0.18 0.05 t0.11 0.04 q0.8 0.52 1.43 1.25 t1.21 1.66 t1.16 2.06 t1.3 2.45 l0 -0.02 q0.2 0.36 0.47 0.84 t0.59 0.92 t0.66 0.74 t0.7 0.3 q0.36 -0.02 0.85 -0.61 t1.03 -1.48 t1.09 -1.94 t1.05 -1.99 q0.22 -0.44 0.6 -1.12 t0.86 -1.45 t1.03 -1.54 t1.13 -1.4 t1.16 -1.02 t1.1 -0.39 q0.1 0 0.17 0.06 t0.07 0.2 q0 0.22 -0.11 0.45 t-0.23 0.45 q-0.28 0.44 -0.61 0.98 t-0.99 1.4 q0.04 1.1 0.11 2.23 t0.16 2.18 t0.21 1.95 t0.28 1.54 z M50.24 19.48 q-0.74 0 -1.18 -0.38 t-0.61 -0.94 t-0.1 -1.22 t0.34 -1.21 t0.71 -0.91 t1.04 -0.32 q0.7 0.04 1.14 0.42 t0.64 0.94 t0.17 1.19 t-0.29 1.17 t-0.73 0.9 t-1.13 0.36 z M50.5 18.58 q0.22 0.02 0.36 -0.21 t0.2 -0.6 t0.05 -0.81 t-0.1 -0.82 t-0.25 -0.64 t-0.38 -0.26 q-0.2 0 -0.34 0.24 t-0.21 0.6 t-0.07 0.79 t0.08 0.8 t0.24 0.63 t0.42 0.28 z M52.96 15.52 q0.06 -0.4 0.34 -0.6 t0.57 -0.22 t0.51 0.12 t0.18 0.44 q-0.04 0.28 -0.11 0.63 t-0.13 0.7 t-0.09 0.66 t-0.01 0.51 q0.16 -0.54 0.37 -0.97 t0.43 -0.73 q0.16 -0.2 0.44 -0.31 t0.54 -0.1 t0.42 0.15 t0.06 0.4 q-0.06 0.18 -0.11 0.56 t-0.05 0.77 t0.04 0.68 t0.14 0.29 q0.12 0 0.32 -0.22 t0.4 -0.53 t0.37 -0.66 t0.25 -0.61 q0.04 -0.18 0.17 -0.24 t0.25 -0.04 t0.2 0.13 t0.04 0.29 q-0.06 0.28 -0.28 0.76 t-0.52 0.94 t-0.66 0.81 t-0.7 0.35 q-0.58 0 -0.83 -0.31 t-0.33 -0.7 t-0.06 -0.76 t-0.02 -0.47 q-0.1 0.04 -0.21 0.28 t-0.21 0.56 t-0.18 0.67 t-0.1 0.59 q-0.04 0.26 -0.27 0.39 t-0.5 0.13 t-0.49 -0.14 t-0.2 -0.44 q0.02 -0.34 0 -0.82 t-0.04 -1.01 t-0.02 -1.03 t0.08 -0.9 z M60.900000000000006 14.76 q0.26 -0.14 0.52 0 t0.4 0.39 t0.09 0.52 t-0.41 0.37 q-0.32 0.08 -0.67 0.16 t-0.66 0.14 t-0.53 0.11 t-0.28 0.05 q0.04 0 0.43 0.11 t0.83 0.36 t0.8 0.67 t0.36 1.06 q0 0.7 -0.48 1.11 t-1.12 0.55 q-0.4 0.06 -0.77 0 t-0.66 -0.25 t-0.47 -0.52 t-0.18 -0.79 q0 -0.38 0.25 -0.6 t0.54 -0.28 t0.52 0.06 t0.19 0.42 q-0.1 0.62 0.06 0.9 t0.32 0.28 q0.2 0 0.33 -0.14 t0.15 -0.37 t-0.08 -0.52 t-0.32 -0.59 q-0.18 -0.26 -0.45 -0.47 t-0.54 -0.36 t-0.53 -0.24 t-0.42 -0.13 q-0.18 -0.04 -0.27 -0.25 t-0.08 -0.44 t0.16 -0.42 t0.45 -0.19 q0.6 0 1.29 -0.19 t1.23 -0.51 z M62.7 13.440000000000001 q0 -0.14 0.01 -0.27 t0.01 -0.23 q0 -0.48 0.26 -0.67 t0.56 -0.17 t0.53 0.22 t0.17 0.52 l-0.1 0.52 l0.48 0 q0.38 0 0.55 0.13 t0.17 0.28 t-0.18 0.27 t-0.5 0.12 l-0.6 0 q-0.08 0.72 -0.14 1.59 t-0.08 1.64 t0.02 1.28 t0.18 0.51 q0.12 0 0.33 -0.36 t0.43 -0.83 t0.4 -0.92 t0.24 -0.61 q0.04 -0.18 0.18 -0.24 t0.27 -0.03 t0.22 0.14 t0.03 0.29 q-0.12 0.4 -0.32 1.04 t-0.5 1.24 t-0.72 1.04 t-1 0.44 q-0.38 0 -0.62 -0.3 t-0.36 -0.79 t-0.15 -1.13 t-0.01 -1.32 t0.08 -1.37 t0.1 -1.27 l-0.48 0 q-0.32 0 -0.49 -0.12 t-0.18 -0.26 t0.15 -0.26 t0.52 -0.12 l0.54 0 z M67.78 14.54 q0.28 0.06 0.49 0.26 t0.35 0.44 q0.16 -0.18 0.4 -0.2 t0.46 0.07 t0.36 0.28 t0.1 0.45 q-0.08 0.36 -0.15 0.9 t-0.09 1.04 t0.03 0.86 t0.21 0.36 q0.12 0 0.29 -0.31 t0.34 -0.73 t0.31 -0.84 t0.18 -0.64 q0.06 -0.2 0.2 -0.27 t0.27 -0.04 t0.22 0.15 t0.03 0.3 q-0.04 0.12 -0.13 0.45 t-0.23 0.73 t-0.33 0.83 t-0.44 0.76 t-0.56 0.51 t-0.67 0.08 q-0.58 -0.16 -0.84 -0.7 q-0.16 0.48 -0.44 0.87 t-0.72 0.57 q-0.42 0.14 -0.74 0.06 q-0.58 -0.16 -0.92 -0.72 t-0.46 -1.3 t-0.02 -1.54 t0.41 -1.44 t0.83 -1.01 t1.26 -0.23 z M68.3 16.56 q-0.04 -0.34 -0.15 -0.66 t-0.33 -0.36 q-0.32 -0.06 -0.57 0.23 t-0.41 0.77 t-0.23 1.05 t-0.04 1.08 t0.16 0.87 t0.39 0.4 t0.49 -0.28 t0.4 -0.82 t0.26 -1.11 t0.03 -1.17 z M71.68 16.740000000000002 q-0.04 0.16 -0.17 0.23 t-0.27 0.04 t-0.22 -0.14 t0 -0.29 l0.12 -0.34 q-0.18 -0.18 -0.2 -0.42 t0.08 -0.45 t0.29 -0.36 t0.43 -0.15 q0.42 0 0.46 0.31 t-0.12 0.69 q0.12 0.06 0.39 0.02 t0.51 -0.05 t0.4 0.09 t0.08 0.46 t-0.17 0.86 t-0.13 0.95 t0 0.77 t0.22 0.32 q0.12 0 0.31 -0.35 t0.39 -0.81 t0.36 -0.93 t0.2 -0.71 q0.04 -0.2 0.17 -0.28 t0.27 -0.07 t0.23 0.12 t0.07 0.31 q-0.02 0.1 -0.1 0.43 t-0.22 0.74 t-0.34 0.86 t-0.48 0.83 t-0.62 0.61 t-0.76 0.21 q-0.48 -0.02 -0.7 -0.43 t-0.28 -0.98 t0.03 -1.21 t0.25 -1.12 q-0.1 0.02 -0.2 0.02 l-0.2 0 q-0.06 0.1 -0.08 0.22 z"></path></g><g id="SvgjsG1460" featurekey="RFbU7s-0" transform="matrix(0.8585796767824223,0,0,0.8585796767824223,33.96970455162217,75.02023771090087)" fill="#000"><path d="M3.82 17.58 l5.68 0 l0 2.42 l-8.3 0 l0 -14 l2.62 0 l0 11.58 z M27.96 6 l0 14 l-2.62 0 l0 -14 l2.62 0 z M55.42 6 l2.78 0 l-6.22 14 l-2.34 0 l-6.24 -14 l2.78 0 l4.62 10.76 z M76.25999999999999 17.58 l6.1 0 l0 2.42 l-6.5 0 l-2.22 0 l0 -14 l2.62 0 l5.92 0 l0 2.42 l-5.92 0 l0 3.36 l4.5 0 l0 2.36 l-4.5 0 l0 3.44 z M120.75999999999999 17.58 l5.68 0 l0 2.42 l-8.3 0 l0 -14 l2.62 0 l0 11.58 z M144.89999999999998 6 l0 14 l-2.62 0 l0 -14 l2.62 0 z M170.22 20 l-4.6 -6.1 l-1.78 2 l0 4.1 l-2.7 0 l0 -14 l2.7 0 l0 6.4 l5.56 -6.4 l3.24 0 l-5.38 6.06 l6 7.94 l-3.04 0 z M191.42 17.58 l6.1 0 l0 2.42 l-6.5 0 l-2.22 0 l0 -14 l2.62 0 l5.92 0 l0 2.42 l-5.92 0 l0 3.36 l4.5 0 l0 2.36 l-4.5 0 l0 3.44 z M245.01999999999998 18.5 c-1.26 1.1 -2.9 1.7 -4.76 1.7 c-3.84 0 -7.26 -2.96 -7.26 -7.2 s3.42 -7.2 7.26 -7.2 c1.84 0 3.46 0.6 4.68 1.66 l-1.58 1.8 c-0.8 -0.6 -1.86 -1 -2.94 -1 c-2.6 0 -4.7 1.98 -4.7 4.74 s2.1 4.74 4.7 4.74 c1.1 0 2.2 -0.42 3.02 -1.08 z M267.7 5.800000000000001 c3.84 0 7.24 2.96 7.24 7.2 s-3.4 7.2 -7.24 7.2 s-7.24 -2.96 -7.24 -7.2 s3.4 -7.2 7.24 -7.2 z M267.7 17.740000000000002 c2.44 0 4.5 -1.98 4.5 -4.74 s-2.06 -4.74 -4.5 -4.74 c-2.46 0 -4.52 1.98 -4.52 4.74 s2.06 4.74 4.52 4.74 z M295.68 6 c4 0 7.08 3.1 7.08 6.94 c0 3.96 -3.08 7.06 -7.08 7.06 l-4.8 0 l0 -14 l4.8 0 z M295.66 17.52 c2.84 0 4.44 -2.06 4.44 -4.58 c0 -2.4 -1.6 -4.46 -4.44 -4.46 l-2.16 0 l0 9.04 l2.16 0 z M321.21999999999997 17.58 l6.1 0 l0 2.42 l-6.5 0 l-2.22 0 l0 -14 l2.62 0 l5.92 0 l0 2.42 l-5.92 0 l0 3.36 l4.5 0 l0 2.36 l-4.5 0 l0 3.44 z"></path></g></svg>