<svg width="429" height="93.59157337746723" viewBox="0 0 370.2307692307692 80.77035012833956" class="looka-1j8o68f" fill="none" xmlns="http://www.w3.org/2000/svg"><defs id="SvgjsDefs3415"></defs><g id="SvgjsG3416" featurekey="AgVF85-0" transform="matrix(1.1373382721324878,0,0,1.1373382721324878,-16.482306899211395,-16.481169101047538)" fill="#000000"><g xmlns="http://www.w3.org/2000/svg"><path fill="#000000" d="M74.408,14.491c-0.728,0-1.454,0.28-2.013,0.811c-0.028,0.028-0.028,0.028-0.057,0.028l-11.91,10.205   H19.804c-2.936,0-5.312,2.376-5.312,5.313v37.773c0,2.908,2.376,5.284,5.312,5.284h22.004l-1.454,5.117h-0.867   c-1.118,0-2.041,0.922-2.041,2.041v2.404c0,1.118,0.923,2.041,2.041,2.041h21.193c1.118,0,2.041-0.923,2.041-2.041v-2.404   c0-1.119-0.923-2.041-2.041-2.041h-0.867l-1.454-5.117h21.836c2.936,0,5.313-2.376,5.313-5.284V30.848   c0-2.936-2.377-5.313-5.313-5.313h-3.858l2.936-3.355l-0.027-0.028c1.09-1.119,1.118-2.936,0-4.054l-2.796-2.768   C75.89,14.771,75.163,14.491,74.408,14.491L74.408,14.491z M74.408,16.057c0.335,0,0.671,0.14,0.95,0.419l2.74,2.74   c0.531,0.531,0.56,1.342,0,1.874c0,0.028,0,0.056,0,0.056l-24.492,28.1l-8.5-8.5l28.294-24.269c0.028,0,0.028,0,0.056,0   C73.709,16.197,74.072,16.057,74.408,16.057L74.408,16.057z M19.804,27.129h38.807l-3.858,3.299h-34.92h-0.028   c-0.419,0.028-0.755,0.392-0.755,0.783v37.019c0,0.42,0.392,0.783,0.783,0.783h60.363c0.392,0,0.783-0.363,0.783-0.783V31.211   c0-0.391-0.336-0.755-0.727-0.783c-0.028,0-0.057,0-0.057,0h-8.107l2.879-3.299h5.229c2.097,0,3.747,1.622,3.747,3.719v37.773   c0,2.069-1.65,3.719-3.747,3.719H19.804c-2.097,0-3.746-1.649-3.746-3.719V30.848C16.058,28.75,17.708,27.129,19.804,27.129   L19.804,27.129z M20.643,31.994h32.264l-11.435,9.813c-0.615,0.531-0.895,1.286-0.867,1.958c0.028,0.671,0.279,1.286,0.531,1.845   c0.056,0.084,0.083,0.167,0.167,0.224l1.286,1.286c-1.314,0.671-2.544,0.867-3.858,1.174c-1.622,0.363-3.383,0.895-5.116,2.656   c-1.482,1.454-1.733,3.439-1.79,5.368c-0.056,1.93,0.056,3.887-0.392,5.593c-0.167,0.531,0.419,1.118,0.951,0.979   c1.733-0.447,3.691-0.364,5.62-0.42c1.929-0.056,3.915-0.308,5.396-1.762c1.733-1.761,2.292-3.494,2.656-5.116   c0.308-1.314,0.503-2.517,1.174-3.803l1.286,1.23c1.119,1.146,2.992,1.034,4.026-0.168l18.174-20.857h8.667v35.452H20.643V31.994   L20.643,31.994z M43.905,41.78l8.667,8.667l-1.202,1.37c-0.504,0.587-1.203,0.643-1.733,0.111l-2.181-2.18l-0.587-0.587   l-1.678-1.678l-2.628-2.6c-0.224-0.475-0.364-0.895-0.392-1.174c0-0.308,0.056-0.447,0.335-0.699l0,0L43.905,41.78L43.905,41.78z    M43.653,48.183l0.419,0.419l1.649,1.677l0.419,0.392c-0.979,1.649-1.342,3.216-1.649,4.586c-0.335,1.537-0.699,2.852-2.209,4.333   c-1.034,1.035-2.488,1.259-4.306,1.314c-1.51,0.028-3.215,0.056-4.893,0.308c0.279-1.678,0.279-3.355,0.308-4.837   c0.056-1.817,0.307-3.271,1.342-4.306c1.51-1.482,2.796-1.902,4.333-2.237C40.438,49.524,42.004,49.133,43.653,48.183   L43.653,48.183z M43.43,73.905h13.28l1.482,5.117H41.976L43.43,73.905L43.43,73.905z M39.487,80.616h21.193   c0.279,0,0.475,0.167,0.475,0.447v2.404c0,0.279-0.195,0.476-0.475,0.476H39.487c-0.279,0-0.447-0.196-0.447-0.476v-2.404   C39.04,80.783,39.208,80.616,39.487,80.616L39.487,80.616z"></path></g></g><g id="SvgjsG3417" featurekey="vRT5cH-0" transform="matrix(2.09023533245318,0,0,2.09023533245318,98.44991258542954,2.552263915019818)" fill="#000000"><path d="M9.2 20.3 c-1.1067 0 -2.1434 -0.21006 -3.11 -0.63006 s-1.81 -0.99 -2.53 -1.71 s-1.29 -1.5633 -1.71 -2.53 s-0.63 -2.0034 -0.63 -3.11 c0 -1.0933 0.21 -2.1166 0.63 -3.07 s0.99 -1.78 1.71 -2.48 s1.5633 -1.25 2.53 -1.65 s2.0034 -0.6 3.11 -0.6 c1.0667 0 2.08 0.19666 3.04 0.59 s1.82 0.97 2.58 1.73 c0.18666 0.18666 0.28 0.4 0.28 0.64 s-0.09334 0.44666 -0.28 0.62 c-0.17334 0.17334 -0.38 0.26 -0.62 0.26 s-0.44666 -0.08666 -0.62 -0.26 c-0.6 -0.6 -1.2733 -1.0533 -2.02 -1.36 s-1.5333 -0.46 -2.36 -0.46 c-0.86666 0 -1.6767 0.15666 -2.43 0.47 s-1.41 0.74 -1.97 1.28 s-1 1.1767 -1.32 1.91 s-0.48 1.5267 -0.48 2.38 s0.16334 1.6567 0.49 2.41 s0.77 1.41 1.33 1.97 s1.2167 1.0033 1.97 1.33 s1.5567 0.49 2.41 0.49 c0.82666 0 1.6133 -0.15334 2.36 -0.46 s1.42 -0.75332 2.02 -1.34 c0.17334 -0.18666 0.38 -0.28 0.62 -0.28 s0.44666 0.09334 0.62 0.28 c0.18666 0.17334 0.28 0.38 0.28 0.62 s-0.09334 0.44666 -0.28 0.62 c-0.76 0.76 -1.62 1.34 -2.58 1.74 s-1.9733 0.6 -3.04 0.6 z M22.26 20.3 c-0.70666 0 -1.3733 -0.13666 -2 -0.41 s-1.1733 -0.64334 -1.64 -1.11 s-0.83666 -1.01 -1.11 -1.63 s-0.41 -1.2833 -0.41 -1.99 s0.13666 -1.3733 0.41 -2 s0.64334 -1.1733 1.11 -1.64 s1.0133 -0.83666 1.64 -1.11 s1.2933 -0.41 2 -0.41 s1.37 0.13666 1.99 0.41 s1.1633 0.64334 1.63 1.11 s0.83666 1.0133 1.11 1.64 s0.41 1.2933 0.41 2 s-0.13666 1.37 -0.41 1.99 s-0.64334 1.1633 -1.11 1.63 s-1.01 0.83666 -1.63 1.11 s-1.2833 0.41 -1.99 0.41 z M22.26 11.78 c-0.46666 0 -0.90326 0.09 -1.3099 0.27 s-0.76332 0.42334 -1.07 0.73 s-0.55 0.66332 -0.73 1.07 s-0.27 0.84332 -0.27 1.31 s0.09 0.90332 0.27 1.31 s0.42334 0.76332 0.73 1.07 s0.66332 0.54666 1.07 0.72 s0.84332 0.26 1.31 0.26 s0.90332 -0.08666 1.31 -0.26 s0.76332 -0.41334 1.07 -0.72 s0.54666 -0.66332 0.72 -1.07 s0.26 -0.84332 0.26 -1.31 s-0.09 -0.90332 -0.27 -1.31 s-0.42 -0.76332 -0.72 -1.07 s-0.65666 -0.55 -1.07 -0.73 s-0.84668 -0.27 -1.3 -0.27 z M38.379999999999995 20.3 c-0.25334 0 -0.46668 -0.0867 -0.64002 -0.26004 s-0.26 -0.38 -0.26 -0.62 l0 -0.38 c-0.46666 0.4 -0.98666 0.71 -1.56 0.93 s-1.1733 0.33 -1.8 0.33 c-0.70666 0 -1.3733 -0.13666 -2 -0.41 s-1.1733 -0.64334 -1.64 -1.11 s-0.83666 -1.01 -1.11 -1.63 s-0.41 -1.2833 -0.41 -1.99 s0.13666 -1.3733 0.41 -2 s0.64334 -1.1733 1.11 -1.64 s1.0133 -0.83666 1.64 -1.11 s1.2933 -0.41 2 -0.41 c0.62666 0 1.2267 0.11 1.8 0.33 s1.0933 0.53666 1.56 0.95 l0 -5.88 c0 -0.24 0.08666 -0.44666 0.26 -0.62 s0.38668 -0.26 0.64002 -0.26 c0.24 0 0.44666 0.08666 0.62 0.26 s0.26 0.38 0.26 0.62 l0 14.02 c0 0.24 -0.08666 0.44666 -0.26 0.62 s-0.38 0.26 -0.62 0.26 z M34.12 11.78 c-0.46666 0 -0.90332 0.09 -1.31 0.27 s-0.76332 0.42334 -1.07 0.73 s-0.55 0.66332 -0.73 1.07 s-0.27 0.84332 -0.27 1.31 s0.09 0.90332 0.27 1.31 s0.42334 0.76 0.73 1.06 s0.66332 0.54 1.07 0.72 s0.84332 0.27 1.31 0.27 c0.45334 0 0.88668 -0.09 1.3 -0.27 s0.77 -0.42 1.07 -0.72 s0.54 -0.65334 0.72 -1.06 s0.27 -0.84332 0.27 -1.31 s-0.09 -0.90332 -0.27 -1.31 s-0.42 -0.76332 -0.72 -1.07 s-0.65666 -0.55 -1.07 -0.73 s-0.84668 -0.27 -1.3 -0.27 z M51.1 15.620000000000001 l-7.58 -0.000058594 c0.05334 0.41334 0.17668 0.79668 0.37002 1.15 s0.44 0.66 0.74 0.92 s0.64 0.46334 1.02 0.61 s0.78334 0.22 1.21 0.22 c0.25334 0 0.48334 -0.02 0.69 -0.06 s0.4 -0.10334 0.58 -0.19 s0.36 -0.19332 0.54 -0.31998 s0.37666 -0.27 0.59 -0.43 c0.08 -0.06666 0.16334 -0.12332 0.25 -0.16998 s0.20332 -0.07 0.34998 -0.07 c0.25334 0 0.46668 0.08666 0.64002 0.26 s0.26 0.38 0.26 0.62 c0 0.14666 -0.02666 0.26666 -0.08 0.36 s-0.11334 0.18 -0.18 0.26 c-0.21334 0.24 -0.46334 0.45666 -0.75 0.65 s-0.59332 0.35334 -0.91998 0.48 s-0.66 0.22332 -1 0.28998 s-0.66334 0.1 -0.97 0.1 c-0.70666 0 -1.3733 -0.13666 -2 -0.41 s-1.1733 -0.64334 -1.64 -1.11 s-0.83666 -1.01 -1.11 -1.63 s-0.41 -1.2833 -0.41 -1.99 s0.13666 -1.3733 0.41 -2 s0.64334 -1.1733 1.11 -1.64 s1.0133 -0.83666 1.64 -1.11 s1.2933 -0.41 2 -0.41 c0.68 0 1.32 0.11334 1.92 0.34 s1.1333 0.55 1.6 0.97 s0.84 0.92 1.12 1.5 s0.44 1.2167 0.48 1.91 c0.01334 0.26666 -0.07 0.48332 -0.25 0.64998 s-0.39 0.25 -0.63 0.25 z M46.86 11.78 c-0.69334 0 -1.32 0.19 -1.88 0.57 s-0.97334 0.87666 -1.24 1.49 l6.22 0 c-0.25334 -0.62666 -0.66334 -1.1267 -1.23 -1.5 s-1.19 -0.56 -1.87 -0.56 z M69.14 20.3 c-0.24 0 -0.44666 -0.08666 -0.62 -0.26 s-0.26 -0.38 -0.26 -0.62 l0 -10.42 l-5.24 10.8 c-0.08 0.14666 -0.19334 0.26666 -0.34 0.36 s-0.3 0.14 -0.46 0.14 s-0.31334 -0.04666 -0.46 -0.14 s-0.26 -0.21334 -0.34 -0.36 l-5.24 -10.8 l0 10.42 c0 0.24 -0.08334 0.44666 -0.25 0.62 s-0.37666 0.26 -0.63 0.26 c-0.24 0 -0.44666 -0.08666 -0.62 -0.26 s-0.26 -0.38 -0.26 -0.62 l0 -14.02 c0 -0.24 0.08666 -0.44666 0.26 -0.62 s0.38 -0.26 0.62 -0.26 c0.36 0 0.62666 0.16 0.8 0.48 l6.12 12.42 l6.12 -12.42 c0.17334 -0.32 0.44 -0.48 0.8 -0.48 c0.24 0 0.44666 0.08666 0.62 0.26 s0.26 0.38 0.26 0.62 l0 14.02 c0 0.24 -0.08666 0.44666 -0.26 0.62 s-0.38 0.26 -0.62 0.26 z M77.62 20.3 c-0.70666 0 -1.3733 -0.13666 -2 -0.41 s-1.1733 -0.64334 -1.64 -1.11 s-0.83666 -1.01 -1.11 -1.63 s-0.41 -1.2833 -0.41 -1.99 s0.13666 -1.3733 0.41 -2 s0.64334 -1.1733 1.11 -1.64 s1.0133 -0.83666 1.64 -1.11 s1.2933 -0.41 2 -0.41 s1.37 0.13666 1.99 0.41 s1.1633 0.64334 1.63 1.11 s0.83666 1.0133 1.11 1.64 s0.41 1.2933 0.41 2 s-0.13666 1.37 -0.41 1.99 s-0.64334 1.1633 -1.11 1.63 s-1.01 0.83666 -1.63 1.11 s-1.2833 0.41 -1.99 0.41 z M77.62 11.78 c-0.46666 0 -0.90326 0.09 -1.3099 0.27 s-0.76332 0.42334 -1.07 0.73 s-0.55 0.66332 -0.73 1.07 s-0.27 0.84332 -0.27 1.31 s0.09 0.90332 0.27 1.31 s0.42334 0.76332 0.73 1.07 s0.66332 0.54666 1.07 0.72 s0.84332 0.26 1.31 0.26 s0.90332 -0.08666 1.31 -0.26 s0.76332 -0.41334 1.07 -0.72 s0.54666 -0.66332 0.72 -1.07 s0.26 -0.84332 0.26 -1.31 s-0.09 -0.90332 -0.27 -1.31 s-0.42 -0.76332 -0.72 -1.07 s-0.65666 -0.55 -1.07 -0.73 s-0.84668 -0.27 -1.3 -0.27 z M86.94000000000001 10.6 c0.62666 -0.4 1.3 -0.59998 2.02 -0.59998 c0.50666 0 0.98666 0.09666 1.44 0.29 s0.85 0.46 1.19 0.8 s0.60666 0.73666 0.8 1.19 s0.29 0.93334 0.29 1.44 l0 5.7 c0 0.24 -0.08666 0.44666 -0.26 0.62 s-0.38 0.26 -0.62 0.26 c-0.25334 0 -0.46668 -0.08666 -0.64002 -0.26 s-0.26 -0.38 -0.26 -0.62 l0 -5.7 c0 -0.26666 -0.05 -0.51666 -0.15 -0.75 s-0.24 -0.44 -0.42 -0.62 s-0.38666 -0.32 -0.62 -0.42 s-0.48334 -0.15 -0.75 -0.15 s-0.52 0.05 -0.76 0.15 s-0.44666 0.24 -0.62 0.42 s-0.31 0.38666 -0.41 0.62 s-0.15 0.48334 -0.15 0.75 c0 0.04 -0.01334 0.1 -0.04 0.18 l0 5.52 c0 0.24 -0.08666 0.44666 -0.26 0.62 s-0.38 0.26 -0.62 0.26 c-0.25334 0 -0.46668 -0.08666 -0.64002 -0.26 s-0.26 -0.38 -0.26 -0.62 l0 -8.66 c0 -0.25334 0.08666 -0.46668 0.26 -0.64002 s0.38668 -0.26 0.64002 -0.26 c0.48 0 0.76 0.24666 0.84 0.74 z M98.12 20.3 c-0.4 0 -0.8033 -0.06666 -1.21 -0.2 s-0.77332 -0.32668 -1.1 -0.58002 s-0.59332 -0.56668 -0.79998 -0.94002 s-0.31 -0.79334 -0.31 -1.26 c0 -0.24 0.08666 -0.44666 0.26 -0.62 s0.38 -0.26 0.62 -0.26 c0.25334 0 0.46668 0.08666 0.64002 0.26 s0.26 0.38 0.26 0.62 c0 0.38666 0.16666 0.68332 0.5 0.88998 s0.71334 0.31 1.14 0.31 c0.46666 0 0.82332 -0.09666 1.07 -0.29 s0.37 -0.51 0.37 -0.95 c0 -0.26666 -0.05 -0.48 -0.15 -0.64 s-0.24334 -0.3 -0.43 -0.42 c-0.10666 -0.06666 -0.21666 -0.12332 -0.33 -0.16998 s-0.23668 -0.09666 -0.37002 -0.15 s-0.27 -0.1 -0.41 -0.14 s-0.28334 -0.08666 -0.43 -0.14 c-0.29334 -0.09334 -0.59 -0.20334 -0.89 -0.33 s-0.57334 -0.29 -0.82 -0.49 s-0.44666 -0.45334 -0.6 -0.76 s-0.23 -0.69332 -0.23 -1.16 c0 -0.42666 0.08 -0.81666 0.24 -1.17 s0.38 -0.65668 0.66 -0.91002 s0.60334 -0.45 0.97 -0.59 s0.75 -0.21 1.15 -0.21 s0.78334 0.07 1.15 0.21 s0.68666 0.33666 0.96 0.59 s0.49334 0.55668 0.66 0.91002 s0.25 0.74334 0.25 1.17 c0 0.24 -0.08666 0.44666 -0.26 0.62 s-0.38668 0.26 -0.64002 0.26 c-0.24 0 -0.44666 -0.08666 -0.62 -0.26 s-0.26 -0.38 -0.26 -0.62 c0 -0.33334 -0.12 -0.6 -0.36 -0.8 s-0.53334 -0.3 -0.88 -0.3 s-0.64 0.1 -0.88 0.3 s-0.36 0.46666 -0.36 0.8 c0 0.30666 0.18666 0.55332 0.56 0.73998 c0.21334 0.12 0.45334 0.22 0.72 0.3 c0.13334 0.06666 0.27334 0.12 0.42 0.16 s0.29332 0.09334 0.43998 0.16 c0.29334 0.10666 0.59 0.23666 0.89 0.39 s0.57 0.34668 0.81 0.58002 s0.43666 0.51668 0.59 0.85002 s0.23 0.74 0.23 1.22 s-0.08334 0.90666 -0.25 1.28 s-0.39666 0.69 -0.69 0.95 s-0.63668 0.45666 -1.03 0.59 s-0.81 0.2 -1.25 0.2 z M108.46000000000001 11.78 l-1.62 0 l0 7.64 c0 0.24 -0.08666 0.44666 -0.26 0.62 s-0.38668 0.26 -0.64002 0.26 c-0.24 0 -0.44666 -0.08666 -0.62 -0.26 s-0.26 -0.38 -0.26 -0.62 l0 -7.64 l-1.64 0 c-0.24 0 -0.44666 -0.08666 -0.62 -0.26 s-0.26 -0.38 -0.26 -0.62 c0 -0.25334 0.08666 -0.46668 0.26 -0.64002 s0.38 -0.26 0.62 -0.26 l1.64 0 l0 -2.94 c0 -0.25334 0.08666 -0.46334 0.26 -0.63 s0.38 -0.25 0.62 -0.25 c0.25334 0 0.46668 0.08334 0.64002 0.25 s0.26 0.37666 0.26 0.63 l0 2.94 l1.62 0 c0.25334 0 0.46668 0.08666 0.64002 0.26 s0.26 0.38668 0.26 0.64002 c0 0.24 -0.08666 0.44666 -0.26 0.62 s-0.38668 0.26 -0.64002 0.26 z M119.96000000000001 20.3 c-0.25334 0 -0.46668 -0.0867 -0.64002 -0.26004 s-0.26 -0.38 -0.26 -0.62 l0 -0.38 c-0.46666 0.4 -0.98666 0.71 -1.56 0.93 s-1.1733 0.33 -1.8 0.33 c-0.70666 0 -1.3733 -0.13666 -2 -0.41 s-1.1733 -0.64334 -1.64 -1.11 s-0.83666 -1.01 -1.11 -1.63 s-0.41 -1.2833 -0.41 -1.99 s0.13666 -1.3733 0.41 -2 s0.64334 -1.1733 1.11 -1.64 s1.0133 -0.83666 1.64 -1.11 s1.2933 -0.41 2 -0.41 c0.62666 0 1.2267 0.11 1.8 0.33 s1.0933 0.53 1.56 0.93 l0 -0.38 c0 -0.24 0.08666 -0.44666 0.26 -0.62 s0.38668 -0.26 0.64002 -0.26 c0.24 0 0.44666 0.08666 0.62 0.26 s0.26 0.38 0.26 0.62 l0 8.54 c0 0.24 -0.08666 0.44666 -0.26 0.62 s-0.38 0.26 -0.62 0.26 z M115.7 11.78 c-0.46666 0 -0.90332 0.09 -1.31 0.27 s-0.76332 0.42334 -1.07 0.73 s-0.55 0.66332 -0.73 1.07 s-0.27 0.84332 -0.27 1.31 s0.09 0.90332 0.27 1.31 s0.42334 0.76332 0.73 1.07 s0.66332 0.54666 1.07 0.72 s0.84332 0.26 1.31 0.26 s0.90332 -0.08666 1.31 -0.26 s0.76332 -0.41334 1.07 -0.72 s0.54666 -0.66332 0.72 -1.07 s0.26 -0.84332 0.26 -1.31 s-0.08666 -0.90332 -0.26 -1.31 s-0.41334 -0.76332 -0.72 -1.07 s-0.66332 -0.55 -1.07 -0.73 s-0.84332 -0.27 -1.31 -0.27 z M125.88 10.58 c0.21334 -0.18666 0.45006 -0.33002 0.71006 -0.43002 s0.52334 -0.15 0.79 -0.15 c0.65334 0 1.19 0.16 1.61 0.48 s0.74334 0.78 0.97 1.38 c0.05334 0.13334 0.07334 0.27334 0.06 0.42 s-0.05668 0.28 -0.13002 0.4 s-0.17334 0.21666 -0.3 0.29 s-0.27666 0.11 -0.45 0.11 c-0.14666 0 -0.27666 -0.03334 -0.39 -0.1 s-0.21 -0.14666 -0.29 -0.24 c-0.06666 -0.08 -0.12332 -0.16334 -0.16998 -0.25 s-0.09666 -0.17666 -0.15 -0.27 c-0.09334 -0.14666 -0.19668 -0.26666 -0.31002 -0.36 s-0.30334 -0.12668 -0.57 -0.10002 c-0.17334 0.01334 -0.34 0.06668 -0.5 0.16002 s-0.3 0.20668 -0.42 0.34002 s-0.21666 0.28334 -0.29 0.45 s-0.11 0.33666 -0.11 0.51 l0 6.2 c0 0.24 -0.08666 0.44666 -0.26 0.62 s-0.38 0.26 -0.62 0.26 c-0.25334 0 -0.46668 -0.08666 -0.64002 -0.26 s-0.26 -0.38 -0.26 -0.62 l0 -8.54 c0 -0.24 0.08666 -0.44666 0.26 -0.62 s0.38668 -0.26 0.64002 -0.26 c0.18666 0 0.35332 0.05334 0.49998 0.16 s0.25332 0.24666 0.31998 0.42 z"></path></g><g id="SvgjsG3418" featurekey="dDj50M-0" transform="matrix(0.9208406199443373,0,0,0.9208406199443373,126.61873907008349,50.101130378369504)" fill="#000000"><path d="M1.5 20 l0 -14.24 l1.8 0 l0 12.5 l7.8 0 l0 1.74 l-9.6 0 z M20.3 20 l0 -14.24 l1.8 0 l0 14.24 l-1.8 0 z M31.18 5.76 l1.94 0 l4.48 11.66 l4.5 -11.66 l1.92 0 l-5.48 14.24 l-1.86 0 z M52.14 20 l0 -14.24 l9 0 l0 1.72 l-7.2 0 l0 3.34 l6.28 0 l0 1.78 l-6.28 0 l0 5.64 l7.02 0 l0 1.76 l-8.82 0 z M80.84 20 l0 -14.24 l1.8 0 l0 12.5 l7.8 0 l0 1.74 l-9.6 0 z M99.64 20 l0 -14.24 l1.8 0 l0 14.24 l-1.8 0 z M122.58 20 l-5.9 -8.28 l-3.08 2.9 l0 5.38 l-1.78 0 l0 -14.24 l1.78 0 l0 6.46 l6.86 -6.46 l2.56 0 l-4.98 4.7 l6.8 9.54 l-2.26 0 z M133.32 20 l0 -14.24 l9 0 l0 1.72 l-7.2 0 l0 3.34 l6.28 0 l0 1.78 l-6.28 0 l0 5.64 l7.02 0 l0 1.76 l-8.82 0 z M168.66000000000003 18.46 c1.78 0 3.44 -0.82 4.54 -2.26 l1.4 1.04 c-1.42 1.9 -3.6 2.98 -5.94 2.98 c-4.12 0 -7.46 -3.34 -7.46 -7.46 c0 -4.1 3.34 -7.44 7.46 -7.44 c2.36 0 4.54 1.1 5.96 3 l-1.42 1.04 c-1.08 -1.46 -2.74 -2.28 -4.54 -2.28 c-3.16 0 -5.7 2.54 -5.7 5.68 c0 3.16 2.54 5.7 5.7 5.7 z M189.96 5.32 c4.1 0 7.46 3.34 7.46 7.46 c0 4.1 -3.36 7.42 -7.46 7.42 s-7.44 -3.32 -7.44 -7.42 c0 -4.12 3.34 -7.46 7.44 -7.46 z M189.96 18.44 c3.12 0 5.64 -2.56 5.64 -5.66 c0 -3.12 -2.52 -5.7 -5.64 -5.7 s-5.64 2.58 -5.64 5.7 c0 3.1 2.52 5.66 5.64 5.66 z M205.88000000000002 20 l0 -14.24 l4.6 0 c4.04 0 7.32 3.2 7.32 7.12 s-3.28 7.12 -7.32 7.12 l-4.6 0 z M210.48000000000002 18.26 c3.06 0 5.54 -2.44 5.54 -5.38 s-2.48 -5.38 -5.54 -5.38 l-2.82 0 l0 10.76 l2.82 0 z M226.4 20 l0 -14.24 l9 0 l0 1.72 l-7.2 0 l0 3.34 l6.28 0 l0 1.78 l-6.28 0 l0 5.64 l7.02 0 l0 1.76 l-8.82 0 z"></path></g></svg>