<svg width="223" height="172" viewBox="0 0 223 172" fill="none" xmlns="http://www.w3.org/2000/svg">
<path fill-rule="evenodd" clip-rule="evenodd" d="M48.0015 80H7.99869C5.87691 80 3.84223 80.8425 2.34267 82.3436C0.843113 83.8446 0 85.8783 0 87.9991V164C0 166.121 0.843113 168.155 2.34267 169.656C3.84223 171.157 5.87691 172 7.99869 172H160.002C162.124 172 164.158 171.157 165.658 169.656C167.157 168.155 168 166.121 168 164V126" fill="#71AFED"/>
<path fill-rule="evenodd" clip-rule="evenodd" d="M167.999 88C167.999 83.58 164.416 80 159.998 80H7.99996C3.58156 80 -0.0010376 83.58 -0.0010376 88V104H167.999V88Z" fill="#4567C6"/>
<path fill-rule="evenodd" clip-rule="evenodd" d="M78.9948 46.5H62.9943C60.8725 46.5 58.8378 47.3425 57.3383 48.8436C55.8387 50.3446 54.9956 52.3783 54.9956 54.4991V130.5C54.9956 132.621 55.8387 134.655 57.3383 136.156C58.8378 137.657 60.8725 138.5 62.9943 138.5H214.997C217.119 138.5 219.154 137.657 220.653 136.156C222.153 134.655 222.996 132.621 222.996 130.5V54.4991C222.996 52.3783 222.153 50.3446 220.653 48.8436C219.154 47.3425 217.119 46.5 214.997 46.5H150.995" fill="#A4D0FC"/>
<path fill-rule="evenodd" clip-rule="evenodd" d="M78.9999 100H103C105.208 100 107 98.208 107 96C107 93.792 105.208 92 103 92H78.9999C76.7919 92 74.9999 93.792 74.9999 96C74.9999 98.208 76.7919 100 78.9999 100Z" fill="#71AFED"/>
<path fill-rule="evenodd" clip-rule="evenodd" d="M103 116H127C129.208 116 131 114.208 131 112C131 109.792 129.208 108 127 108H103C100.792 108 98.9999 109.792 98.9999 112C98.9999 114.208 100.792 116 103 116Z" fill="#71AFED"/>
<path d="M147 161C151.418 161 155 157.418 155 153C155 148.582 151.418 145 147 145C142.582 145 139 148.582 139 153C139 157.418 142.582 161 147 161Z" fill="#4567C6"/>
<path d="M122 161C126.418 161 130 157.418 130 153C130 148.582 126.418 145 122 145C117.582 145 114 148.582 114 153C114 157.418 117.582 161 122 161Z" fill="#4567C6"/>
<path fill-rule="evenodd" clip-rule="evenodd" d="M223 54C223 49.58 219.417 46 214.999 46H63.001C58.5826 46 55 49.58 55 54V70H223V54Z" fill="#4567C6"/>
<path fill-rule="evenodd" clip-rule="evenodd" d="M151.02 16.0303C137.854 16.0303 125.231 10.7768 115.951 1.43725C115.365 0.847359 115.02 0.5 115.02 0.5C115.02 0.5 114.675 0.847359 114.089 1.43725C104.809 10.7768 92.1882 16.0303 79.0225 16.0303L79.0199 47.4321C79.0199 64.3066 89.6091 79.3662 105.488 85.074C110.921 87.0266 115.02 88.5002 115.02 88.5002C115.02 88.5002 119.119 87.0266 124.552 85.074C140.431 79.3662 151.02 64.3066 151.02 47.4321V16.0303Z" fill="#71AFED"/>
<path fill-rule="evenodd" clip-rule="evenodd" d="M134 29.4712C127.064 29.4712 120.426 26.6448 115.619 21.6435C115.232 21.2422 115 21 115 21C115 21 114.768 21.2422 114.381 21.6435C109.574 26.6448 102.936 29.4712 95.9999 29.4712V41.6735C95.9999 53.8578 103.578 64.7573 115 69.0008C126.422 64.7573 134 53.8578 134 41.6735V29.4712Z" fill="#4567C6"/>
</svg>
